<svg xmlns="http://www.w3.org/2000/svg" width="24" height="24" viewBox="0 0 24 24"><g fill="none" stroke="currentColor" stroke-linecap="round" stroke-linejoin="round" stroke-width="1.5"><path d="M4 10v4.544c0 3.245 0 4.868.886 5.967a4 4 0 0 0 .603.603C6.59 22 8.211 22 11.456 22c.705 0 1.058 0 1.381-.114a2 2 0 0 0 .197-.082c.31-.148.559-.397 1.058-.896l4.736-4.736c.578-.578.867-.867 1.02-1.235c.152-.368.152-.776.152-1.594V10c0-3.771 0-5.657-1.172-6.828S15.771 2 12 2m1 19.5V21c0-2.828 0-4.243.879-5.121c.878-.879 2.293-.879 5.12-.879h.5"/><path d="M7 8c-.607-.59-3-2.16-3-3s2.393-2.41 3-3M4.5 5H7c1.87 0 2.804 0 3.5.402A3 3 0 0 1 11.598 6.5C12 7.196 12 8.13 12 10"/></g></svg>