<svg xmlns="http://www.w3.org/2000/svg" width="24" height="24" viewBox="0 0 24 24"><path fill="none" stroke="currentColor" stroke-linecap="round" stroke-linejoin="round" stroke-width="1.5" d="M7.5 8.5h9m-9 4H13m-11-2c0-.77.013-1.523.04-2.25c.083-2.373.125-3.56 1.09-4.533c.965-.972 2.186-1.024 4.626-1.129A100 100 0 0 1 12 2.5c1.48 0 2.905.03 4.244.088c2.44.105 3.66.157 4.626 1.13c.965.972 1.007 2.159 1.09 4.532a64 64 0 0 1 0 4.5c-.083 2.373-.125 3.56-1.09 4.533c-.965.972-2.186 1.024-4.626 1.129q-1.102.047-2.275.07c-.74.014-1.111.02-1.437.145s-.6.358-1.148.828l-2.179 1.87A.73.73 0 0 1 8 20.77v-2.348l-.244-.01c-2.44-.105-3.66-.157-4.626-1.13c-.965-.972-1.007-2.159-1.09-4.532A64 64 0 0 1 2 10.5"/></svg>