<svg xmlns="http://www.w3.org/2000/svg" width="24" height="24" viewBox="0 0 24 24"><g fill="none"><path stroke="currentColor" stroke-width="2" d="M3 13v-2c0-3.771 0-5.657 1.172-6.828S7.229 3 11 3h2c3.771 0 5.657 0 6.828 1.172S21 7.229 21 11v2c0 3.771 0 5.657-1.172 6.828S16.771 21 13 21h-1"/><path fill="currentColor" fill-rule="evenodd" d="m19 13.585l-.243-.243l-.015-.014a3 3 0 0 0-4.924.799l-.009.018l-.028.057l-.002.003l-.003-.003l-.04-.047l-4.977-5.806a1 1 0 0 0-1.518 1.302l4.976 5.805l.009.01a2 2 0 0 0 3.366-.414l.006-.012l.075-.148a1 1 0 0 1 1.551-.252c.012.01.032.03.119.117l1.601 1.601c.046-.718.054-1.61.056-2.773" clip-rule="evenodd"/><circle cx="16.5" cy="7.5" r="1.5" fill="currentColor"/><path fill="currentColor" d="M8 16v-1h1v1zm-4.375 4.78a1 1 0 1 1-1.25-1.56zM7 21v-5h2v5zm1-4H3v-2h5zm.625-.22l-5 4l-1.25-1.56l5-4z"/></g></svg>