<svg xmlns="http://www.w3.org/2000/svg" width="24" height="24" viewBox="0 0 24 24"><g fill="none" stroke="currentColor" stroke-linejoin="round" stroke-width="1.5"><path stroke-linecap="round" d="M5.144 11.44a.255.255 0 0 0-.162.235c0 .102.067.198.162.234l2.987 1.09l6.154-3.177a.154.154 0 0 1 .19.05a.154.154 0 0 1-.022.195l-4.417 3.894l4.916 3.558c.067.048.157.06.234.032a.25.25 0 0 0 .156-.177L17.8 7.036a.25.25 0 0 0-.078-.246a.25.25 0 0 0-.254-.046z"/><path stroke-linecap="round" d="m8.131 13l.769 3.917c.024.112.13.198.244.198a.256.256 0 0 0 .245-.198l.643-2.956m1.871 1.355l-2.6 1.748"/><path d="M1.5 12a10.5 10.5 0 1 0 21 0a10.5 10.5 0 1 0-21 0"/></g></svg>