<svg xmlns="http://www.w3.org/2000/svg" width="24" height="24" viewBox="0 0 24 24"><g fill="none" stroke="currentColor" stroke-linejoin="round" stroke-width="1.8"><path d="M16.5 9.5c0-3.314-3.358-6-7.5-6s-7.5 2.686-7.5 6c0 1.891 1.094 3.578 2.803 4.678L4 17l3.302-1.654a9.4 9.4 0 0 0 3.288.02"/><path d="M6.5 8.5a.5.5 0 0 1 0-1m0 1a.5.5 0 0 0 0-1m5 1a.5.5 0 0 1 0-1m0 1a.5.5 0 0 0 0-1m2.75 6a.25.25 0 1 1 0-.5m0 .5a.25.25 0 1 0 0-.5m4.5.5a.25.25 0 1 1 0-.5m0 .5a.25.25 0 1 0 0-.5"/><path d="M10.5 14.5c0 2.761 2.686 5 6 5q.511 0 1-.07L21 21l-.5-2.773c1.227-.916 2-2.246 2-3.727c0-2.761-2.686-5-6-5s-6 2.239-6 5Z"/></g></svg>