<svg xmlns="http://www.w3.org/2000/svg" viewBox="0 0 210 163">
  <path fill="currentColor" d="M 99.323037,0 C 75.692286,0 55.690161,0.22962659 39.552314,2.2817066 18.189571,5.0198856 0.0058582,21.429791 0.0058582,51.752622 H 0 C 0,82.526702 1.5886005,105.55639 13.862933,126.2988 27.726878,150.00843 50.909023,163 80.910715,163 h 7.271206 c 36.816709,0 56.817459,-19.60603 66.817379,-35.10693 4.31967,-6.84294 7.49858,-13.67675 9.54395,-20.51969 C 190.68123,105.09908 210,83.441497 210,56.993692 V 53.346879 C 210,24.847294 191.36645,5.0126335 159.31828,1.823406 145.68247,0.45752539 136.13973,0 99.323037,0 Z m 0.529138,16.559507 c 36.822685,0 44.549845,0.458968 57.501885,1.596215 22.95895,2.731661 36.1393,13.905 36.1393,35.10498 v 3.419622 c 0,18.925785 -15.68314,33.739868 -33.86656,33.739868 h -8.18109 l -1.36286,5.699376 c -1.81744,8.894622 -5.22519,15.958422 -9.089,22.343092 -7.95456,12.5347 -22.27511,26.89868 -51.820044,26.89868 h -7.042762 c -22.502994,0 -42.276444,-7.75131 -53.182896,-28.04247 C 19.403777,99.765282 17.5864,80.845596 17.5864,51.437296 h -0.0059 c 0,-19.147799 7.503844,-29.857903 26.364956,-32.596082 13.407885,-2.05208 31.136474,-2.281707 55.906668,-2.281707 z" />
  <path fill="currentColor" d="m 150.92027,67.709311 c 0,2.738179 2.04537,4.790359 5.68126,4.790359 11.59044,0 17.95549,-6.613606 17.95549,-17.553487 0,-10.93988 -6.36505,-17.782019 -17.95549,-17.782019 -3.63589,0 -5.68126,2.05188 -5.68126,4.790059 v 25.761606 z" />
  <path fill="currentColor" d="m 39.328624,66.345235 c 0,13.449427 7.498798,25.075607 17.043369,34.198865 6.365147,6.15503 16.365777,12.54071 23.180686,16.64407 2.045572,1.13815 4.091344,1.82405 6.365546,1.82405 2.729163,0 4.996467,-0.6859 6.820907,-1.82405 6.820913,-4.10336 16.814848,-10.48904 22.952958,-16.64407 9.772,-9.117241 17.2707,-20.743121 17.2707,-34.198865 0,-14.592892 -10.90565,-27.584652 -26.58784,-27.584652 -9.316144,0 -15.68219,4.789958 -20.456725,11.397247 -4.319974,-6.613506 -10.906752,-11.397247 -20.229691,-11.397247 -15.909717,0 -26.366408,12.99176 -26.366408,27.584652" />
</svg>
