<svg xmlns="http://www.w3.org/2000/svg" version="1.1" width="398px" height="398px" style="shape-rendering:geometricPrecision; text-rendering:geometricPrecision; image-rendering:optimizeQuality; fill-rule:evenodd; clip-rule:evenodd" xmlns:xlink="http://www.w3.org/1999/xlink">
<g><path style="opacity:0.995" fill="#6991db" d="M 198.5,-0.5 C 205.167,-0.5 211.833,-0.5 218.5,-0.5C 221.725,0.236789 225.059,0.903456 228.5,1.5C 225.802,22.3451 221.636,43.0118 216,63.5C 212.678,74.0751 209.678,84.7417 207,95.5C 204.407,101.022 201.574,106.355 198.5,111.5C 196.771,113.727 194.438,114.727 191.5,114.5C 191.626,112.8 192.293,111.3 193.5,110C 192.99,108.174 192.156,108.007 191,109.5C 190.333,104.833 190.333,100.167 191,95.5C 195.091,87.6455 195.591,79.4789 192.5,71C 192.667,68.5 192.833,66 193,63.5C 193.667,64.8333 194.333,64.8333 195,63.5C 196.219,59.4656 196.385,55.4656 195.5,51.5C 196.651,44.64 197.651,37.8067 198.5,31C 196.476,29.5421 196.309,27.7087 198,25.5C 198.5,16.8397 198.666,8.17307 198.5,-0.5 Z"/></g>
<g><path style="opacity:0.998" fill="#6892de" d="M 178.5,-0.5 C 181.5,-0.5 184.5,-0.5 187.5,-0.5C 187.737,10.1982 187.404,20.8649 186.5,31.5C 185.671,39.3228 185.171,47.3228 185,55.5C 184.5,84.8314 184.333,114.165 184.5,143.5C 183.475,167.996 182.808,192.663 182.5,217.5C 178.92,218.077 175.92,217.077 173.5,214.5C 171.129,211.228 169.629,207.561 169,203.5C 165.918,200.341 163.584,196.675 162,192.5C 161,191.833 160,191.167 159,190.5C 158.092,186.807 156.592,183.473 154.5,180.5C 153.069,179.22 152.402,177.553 152.5,175.5C 152.439,171.154 151.273,167.154 149,163.5C 148.667,159.833 148.333,156.167 148,152.5C 143.393,148.731 141.06,143.731 141,137.5C 139.961,136.29 138.794,135.29 137.5,134.5C 136.833,132.167 136.167,129.833 135.5,127.5C 133.494,118.303 131.661,108.969 130,99.5C 129.26,97.6813 128.093,96.3479 126.5,95.5C 124.949,93.0872 124.283,90.4206 124.5,87.5C 124.138,79.2997 122.971,71.2997 121,63.5C 120.193,57.5837 120.359,51.7504 121.5,46C 117.351,36.6686 115.684,26.8352 116.5,16.5C 136.4,7.69385 157.066,2.02718 178.5,-0.5 Z"/></g>
<g><path style="opacity:0.993" fill="#6992de" d="M 244.5,4.5 C 263.573,8.74645 281.573,15.7465 298.5,25.5C 298.205,27.7354 298.539,29.7354 299.5,31.5C 301.948,39.5979 303.115,47.9312 303,56.5C 303.615,58.1161 304.615,59.4495 306,60.5C 306.667,65.8333 307.333,71.1667 308,76.5C 308.71,77.9733 309.876,78.6399 311.5,78.5C 311.823,82.226 311.489,85.8927 310.5,89.5C 309.376,87.6314 308.543,85.6314 308,83.5C 306.634,85.3703 305.467,87.3703 304.5,89.5C 301.833,89.8333 299.167,90.1667 296.5,90.5C 290.792,89.6167 285.125,89.4501 279.5,90C 277.192,87.6162 275.525,84.7829 274.5,81.5C 273.482,80.8075 272.482,80.1408 271.5,79.5C 268.197,72.2847 265.197,64.9513 262.5,57.5C 262.031,51.8375 261.531,46.1709 261,40.5C 259.862,38.2083 258.362,36.2083 256.5,34.5C 256.833,33.8333 257.167,33.1667 257.5,32.5C 253.626,27.8911 251.293,22.5578 250.5,16.5C 248.791,12.2342 246.791,8.2342 244.5,4.5 Z"/></g>
<g><path style="opacity:1" fill="#4f6da3" d="M 190.5,-0.5 C 192.833,-0.5 195.167,-0.5 197.5,-0.5C 196.998,12.8489 196.165,26.1822 195,39.5C 191.978,49.9032 190.644,60.5699 191,71.5C 189.327,77.8036 188.16,84.137 187.5,90.5C 187.082,70.7815 187.749,51.1149 189.5,31.5C 190.15,20.8456 190.484,10.179 190.5,-0.5 Z"/></g>
<g><path style="opacity:0.981" fill="#6992dd" d="M 109.5,20.5 C 108.063,25.4371 106.896,30.4371 106,35.5C 104.842,35.9981 104.009,36.8315 103.5,38C 102.08,42.431 100.914,46.931 100,51.5C 99.3333,52.1667 98.6667,52.8333 98,53.5C 92.6459,75.129 86.4792,96.4623 79.5,117.5C 73.6887,118.949 67.6887,119.616 61.5,119.5C 61.0287,111.407 60.0287,103.407 58.5,95.5C 58.9658,82.5228 58.9658,69.5228 58.5,56.5C 73.2761,41.3971 90.2761,29.3971 109.5,20.5 Z"/></g>
<g><path style="opacity:1" fill="#514e5d" d="M 239.5,3.5 C 240.5,3.5 241.5,3.5 242.5,3.5C 248.099,21.1847 254.099,38.6847 260.5,56C 260.836,57.0299 261.503,57.5299 262.5,57.5C 265.197,64.9513 268.197,72.2847 271.5,79.5C 272.974,81.9794 273.974,84.6461 274.5,87.5C 273.391,87.4431 272.391,87.1098 271.5,86.5C 265.861,71.8941 259.694,57.5608 253,43.5C 248.178,30.1433 243.678,16.81 239.5,3.5 Z"/></g>
<g><path style="opacity:1" fill="#2a4883" d="M 187.5,-0.5 C 188.5,-0.5 189.5,-0.5 190.5,-0.5C 190.484,10.179 190.15,20.8456 189.5,31.5C 188.5,31.5 187.5,31.5 186.5,31.5C 187.404,20.8649 187.737,10.1982 187.5,-0.5 Z"/></g>
<g><path style="opacity:1" fill="#708dc7" d="M 242.5,3.5 C 243.167,3.83333 243.833,4.16667 244.5,4.5C 246.791,8.2342 248.791,12.2342 250.5,16.5C 251.293,22.5578 253.626,27.8911 257.5,32.5C 257.167,33.1667 256.833,33.8333 256.5,34.5C 258.362,36.2083 259.862,38.2083 261,40.5C 261.531,46.1709 262.031,51.8375 262.5,57.5C 261.503,57.5299 260.836,57.0299 260.5,56C 254.099,38.6847 248.099,21.1847 242.5,3.5 Z"/></g>
<g><path style="opacity:1" fill="#ebd0b9" d="M 232.5,1.5 C 234.833,2.16667 237.167,2.83333 239.5,3.5C 243.678,16.81 248.178,30.1433 253,43.5C 259.694,57.5608 265.861,71.8941 271.5,86.5C 272.371,89.1123 273.037,91.779 273.5,94.5C 252.923,95.5902 234.256,90.2568 217.5,78.5C 216.599,75.205 216.599,71.8717 217.5,68.5C 218.627,64.8649 219.627,61.1982 220.5,57.5C 223.19,50.4603 225.356,43.127 227,35.5C 227.501,31.4899 228.001,27.4899 228.5,23.5C 230.261,16.2719 231.594,8.9386 232.5,1.5 Z"/></g>
<g><path style="opacity:0.983" fill="#6992de" d="M 305.5,30.5 C 351.011,59.5652 380.177,100.565 393,153.5C 394.738,161.936 396.238,170.27 397.5,178.5C 397.5,191.833 397.5,205.167 397.5,218.5C 396.175,227.437 394.508,236.437 392.5,245.5C 391.542,245.047 390.708,244.381 390,243.5C 387.798,238.437 385.631,233.437 383.5,228.5C 384.285,224.404 383.118,221.07 380,218.5C 380.334,214.487 378.667,211.821 375,210.5C 375.863,205.879 374.197,202.213 370,199.5C 369.667,199.833 369.333,200.167 369,200.5C 368.667,197.833 368.333,195.167 368,192.5C 366.989,191.663 365.822,191.33 364.5,191.5C 364.662,189.473 364.495,187.473 364,185.5C 360.244,179.488 357.744,172.988 356.5,166C 356.164,164.97 355.497,164.47 354.5,164.5C 354.5,163.833 354.5,163.167 354.5,162.5C 348.544,140.429 341.878,118.596 334.5,97C 333.991,95.8315 333.158,94.9981 332,94.5C 327.921,79.0131 321.755,64.5131 313.5,51C 312.123,47.7877 311.123,44.4544 310.5,41C 309.165,38.8013 307.498,36.9679 305.5,35.5C 305.5,33.8333 305.5,32.1667 305.5,30.5 Z"/></g>
<g><path style="opacity:1" fill="#a19497" d="M 228.5,23.5 C 228.001,27.4899 227.501,31.4899 227,35.5C 225.356,43.127 223.19,50.4603 220.5,57.5C 222.295,45.8359 224.962,34.5026 228.5,23.5 Z"/></g>
<g><path style="opacity:1" fill="#d2bbb0" d="M 111.5,31.5 C 113.417,44.5025 115.417,57.5025 117.5,70.5C 116.842,69.6016 116.176,68.6016 115.5,67.5C 114.914,67.7093 114.414,68.0426 114,68.5C 113.323,61.4654 112.489,54.4654 111.5,47.5C 109.473,47.3379 107.473,47.5045 105.5,48C 105.223,51.9626 103.556,55.1293 100.5,57.5C 101.588,50.3203 104.088,43.6536 108,37.5C 108.333,35.5 108.667,33.5 109,31.5C 109.77,30.4019 110.603,30.4019 111.5,31.5 Z"/></g>
<g><path style="opacity:1" fill="#6d8ac2" d="M 116.5,16.5 C 115.684,26.8352 117.351,36.6686 121.5,46C 120.359,51.7504 120.193,57.5837 121,63.5C 122.971,71.2997 124.138,79.2997 124.5,87.5C 122.806,80.8909 120.973,74.2242 119,67.5C 118.46,55.1506 116.627,43.1506 113.5,31.5C 113.5,27.1667 113.5,22.8333 113.5,18.5C 114.29,17.5987 115.29,16.9321 116.5,16.5 Z"/></g>
<g><path style="opacity:1" fill="#30426e" d="M 298.5,25.5 C 300.001,26.7515 301.668,27.7515 303.5,28.5C 310.846,56.5402 317.346,84.8735 323,113.5C 325.258,118.353 327.758,123.019 330.5,127.5C 329.833,127.5 329.167,127.5 328.5,127.5C 327.351,127.791 326.684,128.624 326.5,130C 328.305,138.067 329.638,146.233 330.5,154.5C 329.698,153.048 329.198,151.382 329,149.5C 328.501,153.486 328.334,157.486 328.5,161.5C 325.15,161.665 321.817,161.498 318.5,161C 317.29,159.961 316.29,158.794 315.5,157.5C 317.196,157.685 318.529,158.519 319.5,160C 322.146,160.497 324.813,160.664 327.5,160.5C 327.702,158.05 327.369,155.717 326.5,153.5C 326.689,141.351 324.522,129.684 320,118.5C 319.942,110.933 318.608,103.6 316,96.5C 304.731,95.5519 293.565,96.5519 282.5,99.5C 282.229,97.5695 281.229,96.2362 279.5,95.5C 290.601,94.8963 301.601,93.563 312.5,91.5C 313.66,87.5411 313.827,83.5411 313,79.5C 309.366,66.2975 306.033,52.9642 303,39.5C 302.422,36.4278 301.255,33.7612 299.5,31.5C 298.539,29.7354 298.205,27.7354 298.5,25.5 Z"/></g>
<g><path style="opacity:1" fill="#ecd1b9" d="M 117.5,70.5 C 119.392,75.946 120.392,81.6126 120.5,87.5C 112.479,98.3379 102.146,106.005 89.5,110.5C 88.8712,105.682 88.8712,100.682 89.5,95.5C 92.6052,82.6363 96.2719,69.9696 100.5,57.5C 103.556,55.1293 105.223,51.9626 105.5,48C 107.473,47.5045 109.473,47.3379 111.5,47.5C 112.489,54.4654 113.323,61.4654 114,68.5C 114.414,68.0426 114.914,67.7093 115.5,67.5C 116.176,68.6016 116.842,69.6016 117.5,70.5 Z"/></g>
<g><path style="opacity:1" fill="#353f6a" d="M 56.5,58.5 C 56.5,73.5 56.5,88.5 56.5,103.5C 55.5128,98.6946 55.1795,93.6946 55.5,88.5C 52.0897,88.3838 50.7564,90.0504 51.5,93.5C 51.1667,94.1667 50.8333,94.8333 50.5,95.5C 49.596,94.791 49.2627,93.791 49.5,92.5C 50.6516,88.8548 51.8182,85.1882 53,81.5C 53.4996,74.8417 53.6663,68.175 53.5,61.5C 54.1667,60.1667 55.1667,59.1667 56.5,58.5 Z"/></g>
<g><path style="opacity:1" fill="#6890d8" d="M 53.5,61.5 C 53.6663,68.175 53.4996,74.8417 53,81.5C 51.8182,85.1882 50.6516,88.8548 49.5,92.5C 48.6851,93.4293 47.8518,94.4293 47,95.5C 44.6265,104.666 41.7931,113.666 38.5,122.5C 38.1961,123.15 37.8627,123.817 37.5,124.5C 32.6157,125.964 27.949,125.63 23.5,123.5C 24.2022,117.385 25.5356,111.385 27.5,105.5C 30.2799,97.1309 33.6132,89.1309 37.5,81.5C 41.7002,73.9622 47.0335,67.2956 53.5,61.5 Z"/></g>
<g><path style="opacity:1" fill="#3a4a77" d="M 186.5,31.5 C 187.5,31.5 188.5,31.5 189.5,31.5C 187.749,51.1149 187.082,70.7815 187.5,90.5C 186.167,106.5 186.167,122.5 187.5,138.5C 187.5,140.833 187.5,143.167 187.5,145.5C 186.5,147.5 185.5,149.5 184.5,151.5C 184.5,148.833 184.5,146.167 184.5,143.5C 184.333,114.165 184.5,84.8314 185,55.5C 185.171,47.3228 185.671,39.3228 186.5,31.5 Z"/></g>
<g><path style="opacity:1" fill="#ecd1b9" d="M 214.5,80.5 C 225.846,87.0015 237.846,92.1682 250.5,96C 258.807,97.1233 267.14,97.9566 275.5,98.5C 277.09,98.6282 278.423,99.2949 279.5,100.5C 282.982,107.464 286.482,114.464 290,121.5C 297.695,132.898 304.861,144.565 311.5,156.5C 311.5,157.833 311.5,159.167 311.5,160.5C 290.102,161.558 268.769,163.392 247.5,166C 244.638,166.27 241.972,167.104 239.5,168.5C 240.833,168.833 242.167,169.167 243.5,169.5C 267.667,165.728 292.001,164.061 316.5,164.5C 318.385,166.053 319.385,168.053 319.5,170.5C 320.5,170.5 321.5,170.5 322.5,170.5C 322.5,171.5 322.5,172.5 322.5,173.5C 320.5,173.5 318.5,173.5 316.5,173.5C 294.795,173.501 273.128,174.335 251.5,176C 247.847,176.773 244.347,177.94 241,179.5C 240.757,183.033 241.257,186.367 242.5,189.5C 243.5,189.833 244.167,190.5 244.5,191.5C 244.495,194.532 244.162,197.532 243.5,200.5C 243.39,202.374 244.056,203.874 245.5,205C 270.127,203.783 294.793,203.283 319.5,203.5C 326.354,203.176 333.021,203.509 339.5,204.5C 338.711,204.783 338.044,205.283 337.5,206C 326.134,206.206 314.801,206.873 303.5,208C 301.754,208.471 300.087,209.138 298.5,210C 297.333,212.5 295.5,214.333 293,215.5C 287.288,220.505 287.121,225.672 292.5,231C 297.87,233.171 303.203,235.337 308.5,237.5C 305.112,241.127 302.945,245.46 302,250.5C 300.323,260.449 298.823,270.449 297.5,280.5C 293.268,275.717 289.768,270.384 287,264.5C 283.412,259.423 278.579,257.59 272.5,259C 271.953,259.925 271.287,260.758 270.5,261.5C 269.743,275.493 269.577,289.493 270,303.5C 267.874,309.46 264.374,314.46 259.5,318.5C 251.873,320.596 244.54,323.262 237.5,326.5C 224.752,328.018 212.085,330.185 199.5,333C 184.17,333.5 168.837,333.667 153.5,333.5C 145.556,331.889 137.556,330.555 129.5,329.5C 124.588,325.765 120.088,321.432 116,316.5C 115.833,315.667 115.667,314.833 115.5,314C 120.483,305.603 124.65,296.77 128,287.5C 129.706,277.941 125.873,274.774 116.5,278C 111.921,280.525 107.254,282.859 102.5,285C 101.743,286.512 100.743,287.846 99.5,289C 98.5165,289.591 97.8499,289.257 97.5,288C 98.9476,281.708 100.781,275.541 103,269.5C 103.564,264.806 103.397,260.14 102.5,255.5C 101.209,255.737 100.209,255.404 99.5,254.5C 100.675,254.719 101.675,254.386 102.5,253.5C 109.341,243.215 107.341,235.382 96.5,230C 87.1832,228.269 77.8499,227.103 68.5,226.5C 82.6012,225.321 96.6012,223.487 110.5,221C 111.716,219.26 113.382,218.26 115.5,218C 119.853,217.755 124.187,217.755 128.5,218C 129.222,216.249 130.222,214.749 131.5,213.5C 132.819,205.457 132.819,197.457 131.5,189.5C 116.776,189.712 102.11,190.712 87.5,192.5C 83.4295,192.766 79.4295,192.433 75.5,191.5C 73.33,189.294 73.33,187.294 75.5,185.5C 84.6994,184.097 93.6994,182.43 102.5,180.5C 110.174,179.363 117.84,178.196 125.5,177C 113.437,176.26 101.437,176.76 89.5,178.5C 83.8698,179.292 78.2031,179.625 72.5,179.5C 73.331,172.869 73.6643,166.202 73.5,159.5C 76.9502,147.009 79.6169,134.342 81.5,121.5C 82.5207,120.099 83.5207,118.765 84.5,117.5C 90.976,113.426 97.6427,109.592 104.5,106C 110.227,101.483 115.894,96.983 121.5,92.5C 127.648,111.672 133.481,131.005 139,150.5C 139.663,154.035 141.163,157.035 143.5,159.5C 145.424,165.441 147.257,171.441 149,177.5C 153,185.5 157,193.5 161,201.5C 166.526,212.509 173.026,222.843 180.5,232.5C 182.208,236.572 184.874,239.905 188.5,242.5C 188.833,241.5 189.167,240.5 189.5,239.5C 188.981,234.001 188.315,228.668 187.5,223.5C 187.5,197.5 187.5,171.5 187.5,145.5C 188.996,141.162 191.163,137.162 194,133.5C 195.917,128.999 197.251,124.332 198,119.5C 199.333,117.5 200.667,115.5 202,113.5C 206.016,102.428 210.183,91.4285 214.5,80.5 Z"/></g>
<g><path style="opacity:1" fill="#4f6a9d" d="M 303.5,28.5 C 304.5,28.8333 305.167,29.5 305.5,30.5C 305.5,32.1667 305.5,33.8333 305.5,35.5C 308.813,41.3162 310.646,47.6495 311,54.5C 312.599,56.056 314.099,57.7227 315.5,59.5C 318.034,68.2741 319.701,77.2741 320.5,86.5C 321.931,86.9766 323.264,87.6433 324.5,88.5C 324.291,89.086 323.957,89.586 323.5,90C 325.019,91.3513 326.352,92.8513 327.5,94.5C 326.16,95.6878 325.493,97.1878 325.5,99C 326.079,106.853 327.579,114.686 330,122.5C 332.775,127.636 335.275,132.969 337.5,138.5C 341.474,144.96 345.808,151.126 350.5,157C 351.078,158.811 351.578,160.645 352,162.5C 352.77,163.598 353.603,163.598 354.5,162.5C 354.5,163.167 354.5,163.833 354.5,164.5C 356.391,172.419 358.724,180.086 361.5,187.5C 358.674,183.211 356.507,178.545 355,173.5C 354.051,171.907 352.885,170.574 351.5,169.5C 344.331,155.403 337.331,141.403 330.5,127.5C 327.758,123.019 325.258,118.353 323,113.5C 317.346,84.8735 310.846,56.5402 303.5,28.5 Z"/></g>
<g><path style="opacity:1" fill="#6a8ccd" d="M 299.5,31.5 C 301.255,33.7612 302.422,36.4278 303,39.5C 306.033,52.9642 309.366,66.2975 313,79.5C 313.827,83.5411 313.66,87.5411 312.5,91.5C 301.601,93.563 290.601,94.8963 279.5,95.5C 276.968,93.3165 275.302,90.6498 274.5,87.5C 273.974,84.6461 272.974,81.9794 271.5,79.5C 272.482,80.1408 273.482,80.8075 274.5,81.5C 275.525,84.7829 277.192,87.6162 279.5,90C 285.125,89.4501 290.792,89.6167 296.5,90.5C 299.167,90.1667 301.833,89.8333 304.5,89.5C 305.467,87.3703 306.634,85.3703 308,83.5C 308.543,85.6314 309.376,87.6314 310.5,89.5C 311.489,85.8927 311.823,82.226 311.5,78.5C 309.876,78.6399 308.71,77.9733 308,76.5C 307.333,71.1667 306.667,65.8333 306,60.5C 304.615,59.4495 303.615,58.1161 303,56.5C 303.115,47.9312 301.948,39.5979 299.5,31.5 Z"/></g>
<g><path style="opacity:1" fill="#43445d" d="M 228.5,1.5 C 229.833,1.5 231.167,1.5 232.5,1.5C 231.594,8.9386 230.261,16.2719 228.5,23.5C 224.962,34.5026 222.295,45.8359 220.5,57.5C 219.627,61.1982 218.627,64.8649 217.5,68.5C 216.016,72.2912 215.016,76.2912 214.5,80.5C 210.183,91.4285 206.016,102.428 202,113.5C 200.667,115.5 199.333,117.5 198,119.5C 197.251,124.332 195.917,128.999 194,133.5C 191.163,137.162 188.996,141.162 187.5,145.5C 187.5,143.167 187.5,140.833 187.5,138.5C 192.123,129.982 195.79,120.982 198.5,111.5C 201.574,106.355 204.407,101.022 207,95.5C 209.678,84.7417 212.678,74.0751 216,63.5C 221.636,43.0118 225.802,22.3451 228.5,1.5 Z"/></g>
<g><path style="opacity:1" fill="#4b70ae" d="M 305.5,35.5 C 307.498,36.9679 309.165,38.8013 310.5,41C 311.123,44.4544 312.123,47.7877 313.5,51C 321.755,64.5131 327.921,79.0131 332,94.5C 333.158,94.9981 333.991,95.8315 334.5,97C 341.878,118.596 348.544,140.429 354.5,162.5C 353.603,163.598 352.77,163.598 352,162.5C 351.578,160.645 351.078,158.811 350.5,157C 345.808,151.126 341.474,144.96 337.5,138.5C 335.275,132.969 332.775,127.636 330,122.5C 327.579,114.686 326.079,106.853 325.5,99C 325.493,97.1878 326.16,95.6878 327.5,94.5C 326.352,92.8513 325.019,91.3513 323.5,90C 323.957,89.586 324.291,89.086 324.5,88.5C 323.264,87.6433 321.931,86.9766 320.5,86.5C 319.701,77.2741 318.034,68.2741 315.5,59.5C 314.099,57.7227 312.599,56.056 311,54.5C 310.646,47.6495 308.813,41.3162 305.5,35.5 Z"/></g>
<g><path style="opacity:1" fill="#464e6e" d="M 113.5,18.5 C 113.5,22.8333 113.5,27.1667 113.5,31.5C 112.833,31.5 112.167,31.5 111.5,31.5C 110.603,30.4019 109.77,30.4019 109,31.5C 108.667,33.5 108.333,35.5 108,37.5C 104.088,43.6536 101.588,50.3203 100.5,57.5C 96.2719,69.9696 92.6052,82.6363 89.5,95.5C 88.7784,95.9175 88.2784,96.5842 88,97.5C 87.0565,102.827 86.2232,108.16 85.5,113.5C 84.5655,114.568 84.2322,115.901 84.5,117.5C 83.5207,118.765 82.5207,120.099 81.5,121.5C 79.6169,134.342 76.9502,147.009 73.5,159.5C 73.1667,159.5 72.8333,159.5 72.5,159.5C 70.8389,162.445 69.6722,165.779 69,169.5C 67.0924,172.332 66.259,171.999 66.5,168.5C 67.5,168.167 68.1667,167.5 68.5,166.5C 69.0659,158.303 71.2325,150.637 75,143.5C 75.4398,137.096 76.2732,130.762 77.5,124.5C 71.6645,123.359 66.3312,124.359 61.5,127.5C 59.631,129.635 58.9644,132.302 59.5,135.5C 58.6762,131.688 58.1762,127.688 58,123.5C 57.6667,123.833 57.3333,124.167 57,124.5C 56.5004,117.508 56.3337,110.508 56.5,103.5C 57.8141,109.986 58.8141,116.653 59.5,123.5C 64.7729,122.23 70.1062,121.064 75.5,120C 77.0664,119.392 78.3998,118.558 79.5,117.5C 86.4792,96.4623 92.6459,75.129 98,53.5C 98.6667,52.8333 99.3333,52.1667 100,51.5C 100.914,46.931 102.08,42.431 103.5,38C 104.009,36.8315 104.842,35.9981 106,35.5C 106.896,30.4371 108.063,25.4371 109.5,20.5C 110.514,19.3263 111.847,18.6596 113.5,18.5 Z"/></g>
<g><path style="opacity:1" fill="#725845" d="M 217.5,68.5 C 216.599,71.8717 216.599,75.205 217.5,78.5C 234.256,90.2568 252.923,95.5902 273.5,94.5C 273.037,91.779 272.371,89.1123 271.5,86.5C 272.391,87.1098 273.391,87.4431 274.5,87.5C 274.244,91.2693 274.577,94.9359 275.5,98.5C 267.14,97.9566 258.807,97.1233 250.5,96C 237.846,92.1682 225.846,87.0015 214.5,80.5C 215.016,76.2912 216.016,72.2912 217.5,68.5 Z"/></g>
<g><path style="opacity:1" fill="#525a7c" d="M 49.5,92.5 C 49.2627,93.791 49.596,94.791 50.5,95.5C 47.2458,103.263 44.5791,111.263 42.5,119.5C 41.5,119.833 40.8333,120.5 40.5,121.5C 39.8333,121.833 39.1667,122.167 38.5,122.5C 41.7931,113.666 44.6265,104.666 47,95.5C 47.8518,94.4293 48.6851,93.4293 49.5,92.5 Z"/></g>
<g><path style="opacity:1" fill="#6b8ed1" d="M 197.5,-0.5 C 197.833,-0.5 198.167,-0.5 198.5,-0.5C 198.666,8.17307 198.5,16.8397 198,25.5C 196.309,27.7087 196.476,29.5421 198.5,31C 197.651,37.8067 196.651,44.64 195.5,51.5C 196.385,55.4656 196.219,59.4656 195,63.5C 194.333,64.8333 193.667,64.8333 193,63.5C 192.833,66 192.667,68.5 192.5,71C 195.591,79.4789 195.091,87.6455 191,95.5C 190.333,100.167 190.333,104.833 191,109.5C 192.156,108.007 192.99,108.174 193.5,110C 192.293,111.3 191.626,112.8 191.5,114.5C 194.438,114.727 196.771,113.727 198.5,111.5C 195.79,120.982 192.123,129.982 187.5,138.5C 186.167,122.5 186.167,106.5 187.5,90.5C 188.16,84.137 189.327,77.8036 191,71.5C 190.644,60.5699 191.978,49.9032 195,39.5C 196.165,26.1822 196.998,12.8489 197.5,-0.5 Z"/></g>
<g><path style="opacity:1" fill="#705542" d="M 120.5,87.5 C 120.366,89.2915 120.699,90.9582 121.5,92.5C 115.894,96.983 110.227,101.483 104.5,106C 97.6427,109.592 90.976,113.426 84.5,117.5C 84.2322,115.901 84.5655,114.568 85.5,113.5C 87.9726,113.912 89.3059,112.912 89.5,110.5C 102.146,106.005 112.479,98.3379 120.5,87.5 Z"/></g>
<g><path style="opacity:1" fill="#514c5c" d="M 111.5,31.5 C 112.167,31.5 112.833,31.5 113.5,31.5C 116.627,43.1506 118.46,55.1506 119,67.5C 120.973,74.2242 122.806,80.8909 124.5,87.5C 124.283,90.4206 124.949,93.0872 126.5,95.5C 129.007,106.409 132.007,117.076 135.5,127.5C 136.167,129.833 136.833,132.167 137.5,134.5C 140.603,142.579 142.603,150.912 143.5,159.5C 141.163,157.035 139.663,154.035 139,150.5C 133.481,131.005 127.648,111.672 121.5,92.5C 120.699,90.9582 120.366,89.2915 120.5,87.5C 120.392,81.6126 119.392,75.946 117.5,70.5C 115.417,57.5025 113.417,44.5025 111.5,31.5 Z"/></g>
<g><path style="opacity:1" fill="#6991dc" d="M 326.5,153.5 C 325.549,154.919 325.216,156.585 325.5,158.5C 322.606,158.444 319.939,157.61 317.5,156C 316.667,153.833 315.167,152.333 313,151.5C 311.168,147.679 309.834,143.679 309,139.5C 302.7,132.233 297.2,124.233 292.5,115.5C 291.103,113.763 289.436,112.429 287.5,111.5C 285.803,107.448 284.136,103.448 282.5,99.5C 293.565,96.5519 304.731,95.5519 316,96.5C 318.608,103.6 319.942,110.933 320,118.5C 324.522,129.684 326.689,141.351 326.5,153.5 Z"/></g>
<g><path style="opacity:1" fill="#728cc7" d="M 58.5,56.5 C 58.9658,69.5228 58.9658,82.5228 58.5,95.5C 60.0287,103.407 61.0287,111.407 61.5,119.5C 67.6887,119.616 73.6887,118.949 79.5,117.5C 78.3998,118.558 77.0664,119.392 75.5,120C 70.1062,121.064 64.7729,122.23 59.5,123.5C 58.8141,116.653 57.8141,109.986 56.5,103.5C 56.5,88.5 56.5,73.5 56.5,58.5C 56.8333,57.5 57.5,56.8333 58.5,56.5 Z"/></g>
<g><path style="opacity:1" fill="#4f74b7" d="M 37.5,81.5 C 33.6132,89.1309 30.2799,97.1309 27.5,105.5C 25.5356,111.385 24.2022,117.385 23.5,123.5C 20.4261,123.127 17.4261,122.461 14.5,121.5C 20.1485,106.853 27.8151,93.5192 37.5,81.5 Z"/></g>
<g><path style="opacity:1" fill="#ddc5b5" d="M 51.5,93.5 C 52.8164,96.0866 53.483,99.0866 53.5,102.5C 54.2055,109.831 54.3722,117.165 54,124.5C 49.9341,125.464 45.7675,125.797 41.5,125.5C 41.5172,123.435 41.8505,121.435 42.5,119.5C 44.5791,111.263 47.2458,103.263 50.5,95.5C 50.8333,94.8333 51.1667,94.1667 51.5,93.5 Z"/></g>
<g><path style="opacity:1" fill="#aa9d9e" d="M 89.5,95.5 C 88.8712,100.682 88.8712,105.682 89.5,110.5C 89.3059,112.912 87.9726,113.912 85.5,113.5C 86.2232,108.16 87.0565,102.827 88,97.5C 88.2784,96.5842 88.7784,95.9175 89.5,95.5 Z"/></g>
<g><path style="opacity:1" fill="#4b3c3d" d="M 56.5,103.5 C 56.3337,110.508 56.5004,117.508 57,124.5C 57.3333,124.167 57.6667,123.833 58,123.5C 58.1762,127.688 58.6762,131.688 59.5,135.5C 61.4506,146.587 63.7839,157.587 66.5,168.5C 66.259,171.999 67.0924,172.332 69,169.5C 69.6722,165.779 70.8389,162.445 72.5,159.5C 71.3639,166.787 70.6973,174.12 70.5,181.5C 69.5386,179.735 69.2053,177.735 69.5,175.5C 68.5,175.5 67.5,175.5 66.5,175.5C 66.8016,178.059 66.4682,180.393 65.5,182.5C 64.6476,174.53 62.9809,166.863 60.5,159.5C 58.406,149.586 56.906,139.586 56,129.5C 50.5449,128.288 45.0449,128.288 39.5,129.5C 40.0916,126.873 40.4249,124.206 40.5,121.5C 40.8333,120.5 41.5,119.833 42.5,119.5C 41.8505,121.435 41.5172,123.435 41.5,125.5C 45.7675,125.797 49.9341,125.464 54,124.5C 54.3722,117.165 54.2055,109.831 53.5,102.5C 53.483,99.0866 52.8164,96.0866 51.5,93.5C 50.7564,90.0504 52.0897,88.3838 55.5,88.5C 55.1795,93.6946 55.5128,98.6946 56.5,103.5 Z"/></g>
<g><path style="opacity:1" fill="#748dc1" d="M 126.5,95.5 C 128.093,96.3479 129.26,97.6813 130,99.5C 131.661,108.969 133.494,118.303 135.5,127.5C 132.007,117.076 129.007,106.409 126.5,95.5 Z"/></g>
<g><path style="opacity:1" fill="#443e4d" d="M 274.5,87.5 C 275.302,90.6498 276.968,93.3165 279.5,95.5C 281.229,96.2362 282.229,97.5695 282.5,99.5C 284.136,103.448 285.803,107.448 287.5,111.5C 296.639,126.868 305.973,142.201 315.5,157.5C 316.29,158.794 317.29,159.961 318.5,161C 321.817,161.498 325.15,161.665 328.5,161.5C 328.334,157.486 328.501,153.486 329,149.5C 329.198,151.382 329.698,153.048 330.5,154.5C 331.453,159.79 332.119,165.123 332.5,170.5C 331.566,171.568 331.232,172.901 331.5,174.5C 330.209,174.737 329.209,174.404 328.5,173.5C 329.725,172.848 330.392,171.681 330.5,170C 330.418,165.425 328.085,163.592 323.5,164.5C 323.392,166.514 324.058,168.18 325.5,169.5C 324.5,170.833 323.5,172.167 322.5,173.5C 322.5,172.5 322.5,171.5 322.5,170.5C 321.5,170.5 320.5,170.5 319.5,170.5C 319.385,168.053 318.385,166.053 316.5,164.5C 315.828,163.733 314.995,163.066 314,162.5C 313.963,160.026 313.13,158.026 311.5,156.5C 304.861,144.565 297.695,132.898 290,121.5C 286.482,114.464 282.982,107.464 279.5,100.5C 278.423,99.2949 277.09,98.6282 275.5,98.5C 274.577,94.9359 274.244,91.2693 274.5,87.5 Z"/></g>
<g><path style="opacity:1" fill="#748ac2" d="M 287.5,111.5 C 289.436,112.429 291.103,113.763 292.5,115.5C 297.2,124.233 302.7,132.233 309,139.5C 309.834,143.679 311.168,147.679 313,151.5C 315.167,152.333 316.667,153.833 317.5,156C 319.939,157.61 322.606,158.444 325.5,158.5C 325.216,156.585 325.549,154.919 326.5,153.5C 327.369,155.717 327.702,158.05 327.5,160.5C 324.813,160.664 322.146,160.497 319.5,160C 318.529,158.519 317.196,157.685 315.5,157.5C 305.973,142.201 296.639,126.868 287.5,111.5 Z"/></g>
<g><path style="opacity:1" fill="#2b355b" d="M 14.5,121.5 C 17.4261,122.461 20.4261,123.127 23.5,123.5C 27.949,125.63 32.6157,125.964 37.5,124.5C 37.8627,123.817 38.1961,123.15 38.5,122.5C 39.1667,122.167 39.8333,121.833 40.5,121.5C 40.4249,124.206 40.0916,126.873 39.5,129.5C 39.5,129.833 39.5,130.167 39.5,130.5C 37.9397,132.156 36.9397,134.156 36.5,136.5C 35.8333,134.167 35.1667,131.833 34.5,129.5C 29.0929,128.627 23.7596,127.461 18.5,126C 16.9069,125.051 15.5736,123.885 14.5,122.5C 14.5,122.167 14.5,121.833 14.5,121.5 Z"/></g>
<g><path style="opacity:0.969" fill="#6891db" d="M 14.5,122.5 C 15.5736,123.885 16.9069,125.051 18.5,126C 23.7596,127.461 29.0929,128.627 34.5,129.5C 31.2406,148.536 26.4073,167.203 20,185.5C 19.5008,190.155 19.3342,194.821 19.5,199.5C 17.955,200.23 17.1216,201.563 17,203.5C 15.8254,211.566 14.3254,219.566 12.5,227.5C 11.7484,238.862 10.7484,250.195 9.5,261.5C 4.63514,247.507 1.3018,233.173 -0.5,218.5C -0.5,205.167 -0.5,191.833 -0.5,178.5C 1.68582,159.091 6.68582,140.424 14.5,122.5 Z"/></g>
<g><path style="opacity:1" fill="#6b90d4" d="M 68.5,166.5 C 67.8826,166.389 67.3826,166.056 67,165.5C 64.1817,152.99 62.3484,140.324 61.5,127.5C 66.3312,124.359 71.6645,123.359 77.5,124.5C 76.2732,130.762 75.4398,137.096 75,143.5C 71.2325,150.637 69.0659,158.303 68.5,166.5 Z"/></g>
<g><path style="opacity:1" fill="#a2989c" d="M 39.5,130.5 C 39.2173,134.954 37.8839,138.954 35.5,142.5C 35.5172,140.435 35.8505,138.435 36.5,136.5C 36.9397,134.156 37.9397,132.156 39.5,130.5 Z"/></g>
<g><path style="opacity:1" fill="#aea1a3" d="M 328.5,127.5 C 329.825,131.453 331.159,135.453 332.5,139.5C 331.414,139.62 330.747,140.287 330.5,141.5C 331.833,152.167 333.167,162.833 334.5,173.5C 333.833,172.5 333.167,171.5 332.5,170.5C 332.119,165.123 331.453,159.79 330.5,154.5C 329.638,146.233 328.305,138.067 326.5,130C 326.684,128.624 327.351,127.791 328.5,127.5 Z"/></g>
<g><path style="opacity:1" fill="#6d7eaa" d="M 61.5,127.5 C 62.3484,140.324 64.1817,152.99 67,165.5C 67.3826,166.056 67.8826,166.389 68.5,166.5C 68.1667,167.5 67.5,168.167 66.5,168.5C 63.7839,157.587 61.4506,146.587 59.5,135.5C 58.9644,132.302 59.631,129.635 61.5,127.5 Z"/></g>
<g><path style="opacity:1" fill="#4c516c" d="M 34.5,129.5 C 35.1667,131.833 35.8333,134.167 36.5,136.5C 35.8505,138.435 35.5172,140.435 35.5,142.5C 31.2474,158.862 26.914,175.195 22.5,191.5C 21.3567,194.976 21.1901,198.642 22,202.5C 24,205.167 26,207.833 28,210.5C 30.6886,216.965 33.522,223.299 36.5,229.5C 36.2627,230.791 36.596,231.791 37.5,232.5C 37.8432,234.483 37.1765,235.817 35.5,236.5C 34.0235,232.202 32.5235,227.868 31,223.5C 30.0513,221.907 28.8846,220.574 27.5,219.5C 26.5377,213.259 23.8711,207.925 19.5,203.5C 19.5,202.167 19.5,200.833 19.5,199.5C 19.3342,194.821 19.5008,190.155 20,185.5C 26.4073,167.203 31.2406,148.536 34.5,129.5 Z"/></g>
<g><path style="opacity:1" fill="#728cc1" d="M 137.5,134.5 C 138.794,135.29 139.961,136.29 141,137.5C 141.06,143.731 143.393,148.731 148,152.5C 148.333,156.167 148.667,159.833 149,163.5C 151.273,167.154 152.439,171.154 152.5,175.5C 149.29,170.693 147.29,165.36 146.5,159.5C 145.5,159.5 144.5,159.5 143.5,159.5C 142.603,150.912 140.603,142.579 137.5,134.5 Z"/></g>
<g><path style="opacity:1" fill="#483d44" d="M 328.5,127.5 C 329.167,127.5 329.833,127.5 330.5,127.5C 337.331,141.403 344.331,155.403 351.5,169.5C 352.324,172.764 352.658,176.098 352.5,179.5C 350.026,189.732 348.026,200.065 346.5,210.5C 346.167,210.5 345.833,210.5 345.5,210.5C 343.565,209.85 341.565,209.517 339.5,209.5C 339.366,207.708 339.699,206.042 340.5,204.5C 341.822,204.67 342.989,204.337 344,203.5C 347.322,191.172 348.155,178.839 346.5,166.5C 343.137,156.772 338.47,147.772 332.5,139.5C 331.159,135.453 329.825,131.453 328.5,127.5 Z"/></g>
<g><path style="opacity:1" fill="#ebd1b9" d="M 60.5,159.5 C 60.3354,162.518 60.502,165.518 61,168.5C 62.9132,172.978 64.0798,177.645 64.5,182.5C 58.6385,183.603 52.9719,185.27 47.5,187.5C 53.8102,188.353 60.1435,188.353 66.5,187.5C 66.9629,190.482 67.2962,193.482 67.5,196.5C 63.9165,197.819 60.2498,198.819 56.5,199.5C 52.6528,199.894 48.9861,200.894 45.5,202.5C 44.8761,202.917 44.5427,203.584 44.5,204.5C 46.0638,207.306 46.7305,210.306 46.5,213.5C 48.2079,218.372 48.7079,223.372 48,228.5C 44.9193,230.465 41.7526,232.131 38.5,233.5C 38.5,232.833 38.1667,232.5 37.5,232.5C 36.596,231.791 36.2627,230.791 36.5,229.5C 35.4658,225.092 34.1324,220.759 32.5,216.5C 32.1322,215.09 31.2989,214.09 30,213.5C 29.9332,207.955 27.9332,203.288 24,199.5C 23.6667,199.833 23.3333,200.167 23,200.5C 22.502,197.518 22.3354,194.518 22.5,191.5C 26.914,175.195 31.2474,158.862 35.5,142.5C 37.8839,138.954 39.2173,134.954 39.5,130.5C 39.5,130.167 39.5,129.833 39.5,129.5C 45.0449,128.288 50.5449,128.288 56,129.5C 56.906,139.586 58.406,149.586 60.5,159.5 Z"/></g>
<g><path style="opacity:1" fill="#e8cdb8" d="M 332.5,139.5 C 338.47,147.772 343.137,156.772 346.5,166.5C 346.959,173.414 346.126,180.08 344,186.5C 343.439,187.022 342.772,187.355 342,187.5C 340.877,185.9 339.377,184.9 337.5,184.5C 336.861,183.903 336.528,183.07 336.5,182C 337.378,180.2 338.045,178.367 338.5,176.5C 337.5,176.5 336.5,176.5 335.5,176.5C 335.737,175.209 335.404,174.209 334.5,173.5C 333.167,162.833 331.833,152.167 330.5,141.5C 330.747,140.287 331.414,139.62 332.5,139.5 Z"/></g>
<g><path style="opacity:1" fill="#775c4a" d="M 311.5,156.5 C 313.13,158.026 313.963,160.026 314,162.5C 314.995,163.066 315.828,163.733 316.5,164.5C 292.001,164.061 267.667,165.728 243.5,169.5C 242.167,169.167 240.833,168.833 239.5,168.5C 241.972,167.104 244.638,166.27 247.5,166C 268.769,163.392 290.102,161.558 311.5,160.5C 311.5,159.167 311.5,157.833 311.5,156.5 Z"/></g>
<g><path style="opacity:1" fill="#6a6f8e" d="M 328.5,173.5 C 326.738,172.738 325.738,171.404 325.5,169.5C 324.058,168.18 323.392,166.514 323.5,164.5C 328.085,163.592 330.418,165.425 330.5,170C 330.392,171.681 329.725,172.848 328.5,173.5 Z"/></g>
<g><path style="opacity:1" fill="#271417" d="M 325.5,169.5 C 325.738,171.404 326.738,172.738 328.5,173.5C 329.209,174.404 330.209,174.737 331.5,174.5C 331.232,172.901 331.566,171.568 332.5,170.5C 333.167,171.5 333.833,172.5 334.5,173.5C 335.404,174.209 335.737,175.209 335.5,176.5C 336.5,176.5 337.5,176.5 338.5,176.5C 338.045,178.367 337.378,180.2 336.5,182C 336.528,183.07 336.861,183.903 337.5,184.5C 337.833,185.167 338.167,185.833 338.5,186.5C 338.372,190.881 338.705,195.215 339.5,199.5C 338.167,199.5 336.833,199.5 335.5,199.5C 335.649,198.448 335.483,197.448 335,196.5C 333.139,197.764 331.139,198.764 329,199.5C 322.58,197.472 316.247,197.472 310,199.5C 296.983,199.709 283.983,199.376 271,198.5C 270,199.167 269,199.833 268,200.5C 262.22,199.853 256.387,199.186 250.5,198.5C 249.289,197.126 248.289,195.626 247.5,194C 248.526,191.54 248.526,189.04 247.5,186.5C 247.437,184.519 248.104,182.852 249.5,181.5C 254.209,180.439 258.876,179.272 263.5,178C 277.663,177.241 291.663,176.407 305.5,175.5C 309.649,176.08 313.316,175.414 316.5,173.5C 318.5,173.5 320.5,173.5 322.5,173.5C 323.5,172.167 324.5,170.833 325.5,169.5 Z"/></g>
<g><path style="opacity:1" fill="#351d17" d="M 70.5,181.5 C 72.5,182.167 74.5,182.833 76.5,183.5C 73.8427,183.935 71.5093,184.935 69.5,186.5C 68.8826,186.611 68.3826,186.944 68,187.5C 64.5894,186.707 61.0894,186.207 57.5,186C 60.6663,185.678 63.333,184.511 65.5,182.5C 66.4682,180.393 66.8016,178.059 66.5,175.5C 67.5,175.5 68.5,175.5 69.5,175.5C 69.2053,177.735 69.5386,179.735 70.5,181.5 Z"/></g>
<g><path style="opacity:1" fill="#664e46" d="M 316.5,173.5 C 313.316,175.414 309.649,176.08 305.5,175.5C 285.36,174.846 265.36,176.013 245.5,179C 243.714,179.196 242.381,180.029 241.5,181.5C 242.393,184.084 242.726,186.751 242.5,189.5C 241.257,186.367 240.757,183.033 241,179.5C 244.347,177.94 247.847,176.773 251.5,176C 273.128,174.335 294.795,173.501 316.5,173.5 Z"/></g>
<g><path style="opacity:1" fill="#c1aa9a" d="M 72.5,159.5 C 72.8333,159.5 73.1667,159.5 73.5,159.5C 73.6643,166.202 73.331,172.869 72.5,179.5C 78.2031,179.625 83.8698,179.292 89.5,178.5C 87.1891,180.068 84.5224,180.902 81.5,181C 77.8484,181.499 74.1817,181.665 70.5,181.5C 70.6973,174.12 71.3639,166.787 72.5,159.5 Z"/></g>
<g><path style="opacity:1" fill="#9f8979" d="M 60.5,159.5 C 62.9809,166.863 64.6476,174.53 65.5,182.5C 65.1667,182.5 64.8333,182.5 64.5,182.5C 64.0798,177.645 62.9132,172.978 61,168.5C 60.502,165.518 60.3354,162.518 60.5,159.5 Z"/></g>
<g><path style="opacity:1" fill="#624635" d="M 102.5,180.5 C 93.835,181.5 85.1684,182.5 76.5,183.5C 74.5,182.833 72.5,182.167 70.5,181.5C 74.1817,181.665 77.8484,181.499 81.5,181C 84.5224,180.902 87.1891,180.068 89.5,178.5C 101.437,176.76 113.437,176.26 125.5,177C 117.84,178.196 110.174,179.363 102.5,180.5 Z"/></g>
<g><path style="opacity:1" fill="#c9afa2" d="M 346.5,166.5 C 348.155,178.839 347.322,191.172 344,203.5C 342.989,204.337 341.822,204.67 340.5,204.5C 340.167,204.5 339.833,204.5 339.5,204.5C 333.021,203.509 326.354,203.176 319.5,203.5C 319.5,203.167 319.5,202.833 319.5,202.5C 326.858,202.582 334.191,202.248 341.5,201.5C 340.412,196.39 339.412,191.39 338.5,186.5C 338.167,185.833 337.833,185.167 337.5,184.5C 339.377,184.9 340.877,185.9 342,187.5C 342.772,187.355 343.439,187.022 344,186.5C 346.126,180.08 346.959,173.414 346.5,166.5 Z"/></g>
<g><path style="opacity:1" fill="#664b39" d="M 64.5,182.5 C 64.8333,182.5 65.1667,182.5 65.5,182.5C 63.333,184.511 60.6663,185.678 57.5,186C 61.0894,186.207 64.5894,186.707 68,187.5C 68.3826,186.944 68.8826,186.611 69.5,186.5C 69.2641,189.609 69.5975,192.609 70.5,195.5C 69.391,195.557 68.391,195.89 67.5,196.5C 67.2962,193.482 66.9629,190.482 66.5,187.5C 60.1435,188.353 53.8102,188.353 47.5,187.5C 52.9719,185.27 58.6385,183.603 64.5,182.5 Z"/></g>
<g><path style="opacity:1" fill="#6b89c4" d="M 354.5,164.5 C 355.497,164.47 356.164,164.97 356.5,166C 357.744,172.988 360.244,179.488 364,185.5C 364.495,187.473 364.662,189.473 364.5,191.5C 365.822,191.33 366.989,191.663 368,192.5C 368.333,195.167 368.667,197.833 369,200.5C 369.333,200.167 369.667,199.833 370,199.5C 374.197,202.213 375.863,205.879 375,210.5C 378.667,211.821 380.334,214.487 380,218.5C 383.118,221.07 384.285,224.404 383.5,228.5C 374.884,215.606 367.55,201.939 361.5,187.5C 358.724,180.086 356.391,172.419 354.5,164.5 Z"/></g>
<g><path style="opacity:1" fill="#281516" d="M 129.5,213.5 C 107.238,216.903 85.2382,221.236 63.5,226.5C 61.8333,226.5 60.1667,226.5 58.5,226.5C 55.8333,226.5 53.1667,226.5 50.5,226.5C 52.2949,222.054 52.9616,217.554 52.5,213C 50.4152,210.581 49.4152,207.747 49.5,204.5C 48.448,204.649 47.448,204.483 46.5,204C 49.8587,202.388 53.192,200.888 56.5,199.5C 60.2498,198.819 63.9165,197.819 67.5,196.5C 68.391,195.89 69.391,195.557 70.5,195.5C 73.7131,195.81 76.7131,195.477 79.5,194.5C 95.1732,193.042 110.84,191.875 126.5,191C 127.967,192.098 128.801,193.598 129,195.5C 129.221,200.22 129.721,204.887 130.5,209.5C 129.754,210.736 129.421,212.07 129.5,213.5 Z"/></g>
<g><path style="opacity:1" fill="#cab0a1" d="M 102.5,180.5 C 93.6994,182.43 84.6994,184.097 75.5,185.5C 73.33,187.294 73.33,189.294 75.5,191.5C 79.4295,192.433 83.4295,192.766 87.5,192.5C 84.8333,193.167 82.1667,193.833 79.5,194.5C 76.7131,195.477 73.7131,195.81 70.5,195.5C 69.5975,192.609 69.2641,189.609 69.5,186.5C 71.5093,184.935 73.8427,183.935 76.5,183.5C 85.1684,182.5 93.835,181.5 102.5,180.5 Z"/></g>
<g><path style="opacity:1" fill="#4e3831" d="M 131.5,213.5 C 130.833,213.5 130.167,213.5 129.5,213.5C 129.421,212.07 129.754,210.736 130.5,209.5C 129.721,204.887 129.221,200.22 129,195.5C 128.801,193.598 127.967,192.098 126.5,191C 110.84,191.875 95.1732,193.042 79.5,194.5C 82.1667,193.833 84.8333,193.167 87.5,192.5C 102.11,190.712 116.776,189.712 131.5,189.5C 132.819,197.457 132.819,205.457 131.5,213.5 Z"/></g>
<g><path style="opacity:1" fill="#7189bb" d="M 184.5,143.5 C 184.5,146.167 184.5,148.833 184.5,151.5C 184.379,177.88 184.379,204.213 184.5,230.5C 183.833,230.5 183.167,230.5 182.5,230.5C 179.409,224.658 175.576,219.325 171,214.5C 167.946,206.054 163.613,198.388 158,191.5C 156.675,187.861 155.508,184.194 154.5,180.5C 156.592,183.473 158.092,186.807 159,190.5C 160,191.167 161,191.833 162,192.5C 163.584,196.675 165.918,200.341 169,203.5C 169.629,207.561 171.129,211.228 173.5,214.5C 175.92,217.077 178.92,218.077 182.5,217.5C 182.808,192.663 183.475,167.996 184.5,143.5 Z"/></g>
<g><path style="opacity:1" fill="#595870" d="M 187.5,145.5 C 187.5,171.5 187.5,197.5 187.5,223.5C 187.663,225.857 187.497,228.19 187,230.5C 186.023,231.774 185.189,231.774 184.5,230.5C 184.379,204.213 184.379,177.88 184.5,151.5C 185.5,149.5 186.5,147.5 187.5,145.5 Z"/></g>
<g><path style="opacity:1" fill="#2b1612" d="M 305.5,175.5 C 291.663,176.407 277.663,177.241 263.5,178C 258.876,179.272 254.209,180.439 249.5,181.5C 248.104,182.852 247.437,184.519 247.5,186.5C 248.526,189.04 248.526,191.54 247.5,194C 248.289,195.626 249.289,197.126 250.5,198.5C 256.387,199.186 262.22,199.853 268,200.5C 269,199.833 270,199.167 271,198.5C 283.983,199.376 296.983,199.709 310,199.5C 316.247,197.472 322.58,197.472 329,199.5C 331.139,198.764 333.139,197.764 335,196.5C 335.483,197.448 335.649,198.448 335.5,199.5C 336.833,199.5 338.167,199.5 339.5,199.5C 338.705,195.215 338.372,190.881 338.5,186.5C 339.412,191.39 340.412,196.39 341.5,201.5C 334.191,202.248 326.858,202.582 319.5,202.5C 297.452,201.998 275.452,202.664 253.5,204.5C 250.803,204.297 248.136,203.964 245.5,203.5C 245.817,199.298 245.483,195.298 244.5,191.5C 244.167,190.5 243.5,189.833 242.5,189.5C 242.726,186.751 242.393,184.084 241.5,181.5C 242.381,180.029 243.714,179.196 245.5,179C 265.36,176.013 285.36,174.846 305.5,175.5 Z"/></g>
<g><path style="opacity:1" fill="#c8b7b2" d="M 22.5,191.5 C 22.3354,194.518 22.502,197.518 23,200.5C 23.3333,200.167 23.6667,199.833 24,199.5C 27.9332,203.288 29.9332,207.955 30,213.5C 31.2989,214.09 32.1322,215.09 32.5,216.5C 34.1324,220.759 35.4658,225.092 36.5,229.5C 33.522,223.299 30.6886,216.965 28,210.5C 26,207.833 24,205.167 22,202.5C 21.1901,198.642 21.3567,194.976 22.5,191.5 Z"/></g>
<g><path style="opacity:1" fill="#674f43" d="M 244.5,191.5 C 245.483,195.298 245.817,199.298 245.5,203.5C 248.136,203.964 250.803,204.297 253.5,204.5C 275.452,202.664 297.452,201.998 319.5,202.5C 319.5,202.833 319.5,203.167 319.5,203.5C 294.793,203.283 270.127,203.783 245.5,205C 244.056,203.874 243.39,202.374 243.5,200.5C 244.162,197.532 244.495,194.532 244.5,191.5 Z"/></g>
<g><path style="opacity:1" fill="#f59893" d="M 345.5,211.5 C 348.749,213.019 352.082,214.686 355.5,216.5C 356.527,220.505 356.361,224.505 355,228.5C 353.583,229.078 352.75,230.078 352.5,231.5C 348.717,232.122 345.05,233.122 341.5,234.5C 333.308,234.279 325.141,234.612 317,235.5C 310.402,235.443 304.236,233.943 298.5,231C 296.276,228.035 293.942,225.202 291.5,222.5C 292.971,219.864 294.637,217.364 296.5,215C 301.376,212.804 306.376,212.137 311.5,213C 312.402,209.93 314.402,208.097 317.5,207.5C 326.967,208.183 336.3,209.516 345.5,211.5 Z"/></g>
<g><path style="opacity:1" fill="#4f6da1" d="M 352.5,179.5 C 353.458,179.953 354.292,180.619 355,181.5C 359.81,189.841 361.476,198.841 360,208.5C 359.153,210.193 358.32,211.86 357.5,213.5C 353.976,212.035 350.309,211.035 346.5,210.5C 348.026,200.065 350.026,189.732 352.5,179.5 Z"/></g>
<g><path style="opacity:1" fill="#8b7263" d="M 45.5,202.5 C 45.5,203.5 45.5,204.5 45.5,205.5C 46.5,205.5 47.5,205.5 48.5,205.5C 48.4249,208.206 48.0916,210.873 47.5,213.5C 47.1667,213.5 46.8333,213.5 46.5,213.5C 46.7305,210.306 46.0638,207.306 44.5,204.5C 44.5427,203.584 44.8761,202.917 45.5,202.5 Z"/></g>
<g><path style="opacity:1" fill="#4c342c" d="M 56.5,199.5 C 53.192,200.888 49.8587,202.388 46.5,204C 47.448,204.483 48.448,204.649 49.5,204.5C 49.4152,207.747 50.4152,210.581 52.5,213C 52.9616,217.554 52.2949,222.054 50.5,226.5C 53.1667,226.5 55.8333,226.5 58.5,226.5C 55.7131,227.477 52.7131,227.81 49.5,227.5C 49.4107,224.291 49.744,221.125 50.5,218C 49.9923,216.107 48.9923,214.607 47.5,213.5C 48.0916,210.873 48.4249,208.206 48.5,205.5C 47.5,205.5 46.5,205.5 45.5,205.5C 45.5,204.5 45.5,203.5 45.5,202.5C 48.9861,200.894 52.6528,199.894 56.5,199.5 Z"/></g>
<g><path style="opacity:1" fill="#4a434e" d="M 143.5,159.5 C 144.5,159.5 145.5,159.5 146.5,159.5C 147.29,165.36 149.29,170.693 152.5,175.5C 152.402,177.553 153.069,179.22 154.5,180.5C 155.508,184.194 156.675,187.861 158,191.5C 163.613,198.388 167.946,206.054 171,214.5C 175.576,219.325 179.409,224.658 182.5,230.5C 182.5,231.833 181.833,232.5 180.5,232.5C 173.026,222.843 166.526,212.509 161,201.5C 157,193.5 153,185.5 149,177.5C 147.257,171.441 145.424,165.441 143.5,159.5 Z"/></g>
<g><path style="opacity:1" fill="#c08b98" d="M 345.5,210.5 C 345.833,210.5 346.167,210.5 346.5,210.5C 350.309,211.035 353.976,212.035 357.5,213.5C 358.234,214.708 358.567,216.041 358.5,217.5C 360.226,223.381 358.559,228.048 353.5,231.5C 353.167,231.5 352.833,231.5 352.5,231.5C 352.75,230.078 353.583,229.078 355,228.5C 356.361,224.505 356.527,220.505 355.5,216.5C 352.082,214.686 348.749,213.019 345.5,211.5C 345.5,211.167 345.5,210.833 345.5,210.5 Z"/></g>
<g><path style="opacity:1" fill="#2c3d6a" d="M 351.5,169.5 C 352.885,170.574 354.051,171.907 355,173.5C 356.507,178.545 358.674,183.211 361.5,187.5C 367.55,201.939 374.884,215.606 383.5,228.5C 385.631,233.437 387.798,238.437 390,243.5C 390.708,244.381 391.542,245.047 392.5,245.5C 392.125,247.698 391.458,249.698 390.5,251.5C 383.397,236.177 375.731,221.177 367.5,206.5C 366.758,205.713 365.925,205.047 365,204.5C 363.657,208.88 362.49,213.214 361.5,217.5C 360.5,217.5 359.5,217.5 358.5,217.5C 358.567,216.041 358.234,214.708 357.5,213.5C 358.32,211.86 359.153,210.193 360,208.5C 361.476,198.841 359.81,189.841 355,181.5C 354.292,180.619 353.458,179.953 352.5,179.5C 352.658,176.098 352.324,172.764 351.5,169.5 Z"/></g>
<g><path style="opacity:1" fill="#d4bbab" d="M 129.5,213.5 C 130.167,213.5 130.833,213.5 131.5,213.5C 130.222,214.749 129.222,216.249 128.5,218C 124.187,217.755 119.853,217.755 115.5,218C 113.382,218.26 111.716,219.26 110.5,221C 96.6012,223.487 82.6012,225.321 68.5,226.5C 66.8333,226.5 65.1667,226.5 63.5,226.5C 85.2382,221.236 107.238,216.903 129.5,213.5 Z"/></g>
<g><path style="opacity:1" fill="#eb9f97" d="M 339.5,204.5 C 339.833,204.5 340.167,204.5 340.5,204.5C 339.699,206.042 339.366,207.708 339.5,209.5C 341.565,209.517 343.565,209.85 345.5,210.5C 345.5,210.833 345.5,211.167 345.5,211.5C 336.3,209.516 326.967,208.183 317.5,207.5C 314.402,208.097 312.402,209.93 311.5,213C 306.376,212.137 301.376,212.804 296.5,215C 294.637,217.364 292.971,219.864 291.5,222.5C 293.942,225.202 296.276,228.035 298.5,231C 304.236,233.943 310.402,235.443 317,235.5C 325.141,234.612 333.308,234.279 341.5,234.5C 341.5,235.167 341.167,235.5 340.5,235.5C 332.214,236.274 323.88,236.774 315.5,237C 316.823,237.816 317.489,238.983 317.5,240.5C 315.112,237.924 312.112,236.924 308.5,237.5C 303.203,235.337 297.87,233.171 292.5,231C 287.121,225.672 287.288,220.505 293,215.5C 295.5,214.333 297.333,212.5 298.5,210C 300.087,209.138 301.754,208.471 303.5,208C 314.801,206.873 326.134,206.206 337.5,206C 338.044,205.283 338.711,204.783 339.5,204.5 Z"/></g>
<g><path style="opacity:1" fill="#f4c2b3" d="M 46.5,213.5 C 46.8333,213.5 47.1667,213.5 47.5,213.5C 48.9923,214.607 49.9923,216.107 50.5,218C 49.744,221.125 49.4107,224.291 49.5,227.5C 52.7131,227.81 55.7131,227.477 58.5,226.5C 60.1667,226.5 61.8333,226.5 63.5,226.5C 65.1667,226.5 66.8333,226.5 68.5,226.5C 77.8499,227.103 87.1832,228.269 96.5,230C 107.341,235.382 109.341,243.215 102.5,253.5C 101.675,254.386 100.675,254.719 99.5,254.5C 96.8887,252.318 97.3887,250.651 101,249.5C 103.092,242.615 101.259,237.281 95.5,233.5C 91.8899,231.426 87.8899,230.259 83.5,230C 72.1313,229.207 60.798,229.54 49.5,231C 45.7124,231.874 42.0457,233.041 38.5,234.5C 38.5,234.167 38.5,233.833 38.5,233.5C 41.7526,232.131 44.9193,230.465 48,228.5C 48.7079,223.372 48.2079,218.372 46.5,213.5 Z"/></g>
<g><path style="opacity:1" fill="#4b6eaa" d="M 390.5,251.5 C 388.53,261.417 385.196,270.751 380.5,279.5C 379.504,274.272 378.671,268.938 378,263.5C 377.085,262.672 376.419,261.672 376,260.5C 375.568,253.579 373.401,247.413 369.5,242C 368.207,241.51 366.873,241.343 365.5,241.5C 362.054,241.111 358.721,240.278 355.5,239C 354.426,238.261 353.759,237.261 353.5,236C 354.608,234.323 354.608,232.823 353.5,231.5C 358.559,228.048 360.226,223.381 358.5,217.5C 359.5,217.5 360.5,217.5 361.5,217.5C 362.49,213.214 363.657,208.88 365,204.5C 365.925,205.047 366.758,205.713 367.5,206.5C 375.731,221.177 383.397,236.177 390.5,251.5 Z"/></g>
<g><path style="opacity:1" fill="#f59994" d="M 95.5,233.5 C 97.1546,236.509 98.4879,239.676 99.5,243C 99.9997,246.668 98.6664,249.334 95.5,251C 88.5698,251.24 81.7364,251.407 75,251.5C 74,250.833 73,250.167 72,249.5C 70.2091,242.988 65.8758,240.321 59,241.5C 56.8333,241.667 54.6667,241.833 52.5,242C 48.973,243.74 47.3063,246.573 47.5,250.5C 47.1583,251.338 46.4916,251.672 45.5,251.5C 44.1266,251.657 42.7932,251.49 41.5,251C 40.0118,249.283 38.1785,248.116 36,247.5C 36.1976,243.082 37.031,238.749 38.5,234.5C 42.0457,233.041 45.7124,231.874 49.5,231C 60.798,229.54 72.1313,229.207 83.5,230C 87.8899,230.259 91.8899,231.426 95.5,233.5 Z"/></g>
<g><path style="opacity:1" fill="#6f5c56" d="M 187.5,223.5 C 188.315,228.668 188.981,234.001 189.5,239.5C 189.167,240.5 188.833,241.5 188.5,242.5C 184.874,239.905 182.208,236.572 180.5,232.5C 181.833,232.5 182.5,231.833 182.5,230.5C 183.167,230.5 183.833,230.5 184.5,230.5C 185.189,231.774 186.023,231.774 187,230.5C 187.497,228.19 187.663,225.857 187.5,223.5 Z"/></g>
<g><path style="opacity:1" fill="#d99ca1" d="M 37.5,232.5 C 38.1667,232.5 38.5,232.833 38.5,233.5C 38.5,233.833 38.5,234.167 38.5,234.5C 37.031,238.749 36.1976,243.082 36,247.5C 38.1785,248.116 40.0118,249.283 41.5,251C 42.7932,251.49 44.1266,251.657 45.5,251.5C 45.2882,253.384 44.2882,254.717 42.5,255.5C 40.2612,254.212 37.9279,253.212 35.5,252.5C 34.5326,251.194 33.1993,250.527 31.5,250.5C 31.1774,246.774 31.5108,243.107 32.5,239.5C 33.2876,238.23 34.2876,237.23 35.5,236.5C 37.1765,235.817 37.8432,234.483 37.5,232.5 Z"/></g>
<g><path style="opacity:1" fill="#4b6ea8" d="M 19.5,203.5 C 23.8711,207.925 26.5377,213.259 27.5,219.5C 27.841,228.244 28.841,236.911 30.5,245.5C 30.1667,246.5 29.8333,247.5 29.5,248.5C 24.7892,250.579 22.6225,254.246 23,259.5C 19.5752,261.096 17.4085,263.763 16.5,267.5C 15.5012,256.52 15.1679,245.52 15.5,234.5C 16.0588,224.046 17.3921,213.713 19.5,203.5 Z"/></g>
<g><path style="opacity:1" fill="#2a3e6c" d="M 19.5,199.5 C 19.5,200.833 19.5,202.167 19.5,203.5C 17.3921,213.713 16.0588,224.046 15.5,234.5C 14.6981,235.952 14.1981,237.618 14,239.5C 13.5002,250.495 13.3335,261.495 13.5,272.5C 11.3987,269.203 10.0653,265.537 9.5,261.5C 10.7484,250.195 11.7484,238.862 12.5,227.5C 14.3254,219.566 15.8254,211.566 17,203.5C 17.1216,201.563 17.955,200.23 19.5,199.5 Z"/></g>
<g><path style="opacity:1" fill="#e99b94" d="M 95.5,233.5 C 101.259,237.281 103.092,242.615 101,249.5C 97.3887,250.651 96.8887,252.318 99.5,254.5C 95.5128,254.01 91.8462,254.676 88.5,256.5C 81.5988,255.19 74.5988,255.19 67.5,256.5C 68.482,245.99 63.8153,242.157 53.5,245C 51.6298,247.04 49.6298,248.873 47.5,250.5C 47.3063,246.573 48.973,243.74 52.5,242C 54.6667,241.833 56.8333,241.667 59,241.5C 65.8758,240.321 70.2091,242.988 72,249.5C 73,250.167 74,250.833 75,251.5C 81.7364,251.407 88.5698,251.24 95.5,251C 98.6664,249.334 99.9997,246.668 99.5,243C 98.4879,239.676 97.1546,236.509 95.5,233.5 Z"/></g>
<g><path style="opacity:1" fill="#493e45" d="M 352.5,231.5 C 352.833,231.5 353.167,231.5 353.5,231.5C 354.608,232.823 354.608,234.323 353.5,236C 353.759,237.261 354.426,238.261 355.5,239C 358.721,240.278 362.054,241.111 365.5,241.5C 369.289,245.407 371.789,250.074 373,255.5C 375.924,264.62 377.757,273.954 378.5,283.5C 378.008,285.819 377.008,287.819 375.5,289.5C 376.192,277.667 374.525,266.334 370.5,255.5C 368.802,252.769 367.469,249.769 366.5,246.5C 364.197,245.358 362.03,244.025 360,242.5C 358.211,243.409 356.377,243.576 354.5,243C 353.201,240.184 351.201,238.018 348.5,236.5C 348.082,235.778 347.416,235.278 346.5,235C 348.758,234.124 350.758,232.957 352.5,231.5 Z"/></g>
<g><path style="opacity:1" fill="#eccfb9" d="M 340.5,235.5 C 337.301,245.893 335.468,256.56 335,267.5C 333.011,272.961 330.845,278.294 328.5,283.5C 326.869,279.768 325.869,275.768 325.5,271.5C 325.479,262.232 323.979,253.232 321,244.5C 320.051,242.907 318.885,241.574 317.5,240.5C 317.489,238.983 316.823,237.816 315.5,237C 323.88,236.774 332.214,236.274 340.5,235.5 Z"/></g>
<g><path style="opacity:1" fill="#71493a" d="M 67.5,256.5 C 65.78,259.889 65.1134,263.556 65.5,267.5C 64.8474,271.093 64.0141,274.759 63,278.5C 62.5034,276.19 62.3367,273.857 62.5,271.5C 62.7833,265.298 63.45,259.131 64.5,253C 64.7386,247.246 62.0719,245.246 56.5,247C 50.2711,250.394 45.6045,255.228 42.5,261.5C 41.5481,259.955 41.2148,258.288 41.5,256.5C 39.1016,256.741 37.1016,256.074 35.5,254.5C 35.5,253.833 35.5,253.167 35.5,252.5C 37.9279,253.212 40.2612,254.212 42.5,255.5C 44.2882,254.717 45.2882,253.384 45.5,251.5C 46.4916,251.672 47.1583,251.338 47.5,250.5C 49.6298,248.873 51.6298,247.04 53.5,245C 63.8153,242.157 68.482,245.99 67.5,256.5 Z"/></g>
<g><path style="opacity:1" fill="#536896" d="M 27.5,219.5 C 28.8846,220.574 30.0513,221.907 31,223.5C 32.5235,227.868 34.0235,232.202 35.5,236.5C 34.2876,237.23 33.2876,238.23 32.5,239.5C 31.5108,243.107 31.1774,246.774 31.5,250.5C 27.2111,255.041 23.3778,260.041 20,265.5C 18.1997,269.426 16.6997,273.426 15.5,277.5C 14.4625,276.07 13.7959,274.403 13.5,272.5C 13.3335,261.495 13.5002,250.495 14,239.5C 14.1981,237.618 14.6981,235.952 15.5,234.5C 15.1679,245.52 15.5012,256.52 16.5,267.5C 17.4085,263.763 19.5752,261.096 23,259.5C 22.6225,254.246 24.7892,250.579 29.5,248.5C 29.8333,247.5 30.1667,246.5 30.5,245.5C 28.841,236.911 27.841,228.244 27.5,219.5 Z"/></g>
<g><path style="opacity:1" fill="#444454" d="M 31.5,250.5 C 33.1993,250.527 34.5326,251.194 35.5,252.5C 35.5,253.167 35.5,253.833 35.5,254.5C 32.1903,254.461 29.5237,255.794 27.5,258.5C 24.229,263.23 21.3957,268.23 19,273.5C 18.5017,276.817 18.335,280.15 18.5,283.5C 16.9925,281.819 15.9925,279.819 15.5,277.5C 16.6997,273.426 18.1997,269.426 20,265.5C 23.3778,260.041 27.2111,255.041 31.5,250.5 Z"/></g>
<g><path style="opacity:1" fill="#526084" d="M 365.5,241.5 C 366.873,241.343 368.207,241.51 369.5,242C 373.401,247.413 375.568,253.579 376,260.5C 376.419,261.672 377.085,262.672 378,263.5C 378.671,268.938 379.504,274.272 380.5,279.5C 380.34,281.153 379.674,282.486 378.5,283.5C 377.757,273.954 375.924,264.62 373,255.5C 371.789,250.074 369.289,245.407 365.5,241.5 Z"/></g>
<g><path style="opacity:0.998" fill="#ebd1b9" d="M 62.5,271.5 C 61.1778,274.768 60.5112,278.435 60.5,282.5C 60.6667,286.167 60.8333,289.833 61,293.5C 61.2835,295.886 62.2835,296.552 64,295.5C 65.1237,290.415 66.9571,285.582 69.5,281C 68.3521,279.274 67.1855,279.441 66,281.5C 65.5008,276.845 65.3342,272.179 65.5,267.5C 65.1134,263.556 65.78,259.889 67.5,256.5C 74.5988,255.19 81.5988,255.19 88.5,256.5C 81.1586,261.426 75.3253,267.759 71,275.5C 70.3333,276.5 70.3333,277.5 71,278.5C 76.4879,270.679 82.9879,263.846 90.5,258C 93.8168,257.502 97.1501,257.335 100.5,257.5C 101.034,265.426 99.8673,273.093 97,280.5C 94.1402,288.356 90.9735,296.023 87.5,303.5C 90.5356,302.188 92.7022,299.854 94,296.5C 97.6472,293.687 101.147,290.687 104.5,287.5C 109.5,285 114.5,282.5 119.5,280C 120.833,279.333 122.167,279.333 123.5,280C 124.626,283.744 124.793,287.577 124,291.5C 119.319,298.861 115.152,306.528 111.5,314.5C 116.657,320.125 121.824,325.792 127,331.5C 128.715,333.935 129.882,336.602 130.5,339.5C 132.744,348.745 133.077,358.078 131.5,367.5C 130.943,373.527 130.276,379.527 129.5,385.5C 112.962,379.566 97.6284,371.566 83.5,361.5C 83.8293,355.463 83.4959,349.463 82.5,343.5C 77.9654,341.921 73.2987,340.754 68.5,340C 61.9103,337.641 55.577,334.808 49.5,331.5C 36.6641,317.173 26.3308,301.173 18.5,283.5C 18.335,280.15 18.5017,276.817 19,273.5C 21.3957,268.23 24.229,263.23 27.5,258.5C 29.5237,255.794 32.1903,254.461 35.5,254.5C 37.1016,256.074 39.1016,256.741 41.5,256.5C 41.2148,258.288 41.5481,259.955 42.5,261.5C 45.6045,255.228 50.2711,250.394 56.5,247C 62.0719,245.246 64.7386,247.246 64.5,253C 63.45,259.131 62.7833,265.298 62.5,271.5 Z"/></g>
<g><path style="opacity:0.997" fill="#ebd1b9" d="M 348.5,236.5 C 351.201,238.018 353.201,240.184 354.5,243C 356.377,243.576 358.211,243.409 360,242.5C 362.03,244.025 364.197,245.358 366.5,246.5C 367.469,249.769 368.802,252.769 370.5,255.5C 370.193,260.382 371.026,265.049 373,269.5C 373.5,277.493 373.666,285.493 373.5,293.5C 371.251,299.005 368.251,304.005 364.5,308.5C 349.34,320.007 333.673,330.674 317.5,340.5C 316.16,341.688 315.493,343.188 315.5,345C 316.439,349.469 317.106,353.969 317.5,358.5C 302.585,369.797 286.251,378.797 268.5,385.5C 267.154,370.754 265.154,356.087 262.5,341.5C 262.2,334.104 262.7,326.771 264,319.5C 267.401,314.423 270.401,309.089 273,303.5C 273.539,293.125 273.039,282.791 271.5,272.5C 270.619,262.181 274.619,259.348 283.5,264C 287.447,270.275 290.947,276.775 294,283.5C 295.659,284.817 296.826,286.483 297.5,288.5C 298.325,289.386 299.325,289.719 300.5,289.5C 302.655,277.617 303.822,265.617 304,253.5C 305.136,249.757 306.47,246.09 308,242.5C 310.795,239.887 313.629,239.887 316.5,242.5C 317.937,245.041 319.103,247.708 320,250.5C 322.23,263.741 323.397,277.074 323.5,290.5C 324.978,290.762 326.311,290.429 327.5,289.5C 332.587,283.327 336.087,276.327 338,268.5C 338.742,259.405 340.076,250.405 342,241.5C 342.609,237.717 344.776,236.05 348.5,236.5 Z"/></g>
<g><path style="opacity:1" fill="#715544" d="M 352.5,231.5 C 350.758,232.957 348.758,234.124 346.5,235C 347.416,235.278 348.082,235.778 348.5,236.5C 344.776,236.05 342.609,237.717 342,241.5C 340.076,250.405 338.742,259.405 338,268.5C 336.087,276.327 332.587,283.327 327.5,289.5C 326.311,290.429 324.978,290.762 323.5,290.5C 323.397,277.074 322.23,263.741 320,250.5C 319.103,247.708 317.937,245.041 316.5,242.5C 313.629,239.887 310.795,239.887 308,242.5C 306.47,246.09 305.136,249.757 304,253.5C 303.822,265.617 302.655,277.617 300.5,289.5C 299.325,289.719 298.325,289.386 297.5,288.5C 296.826,286.483 295.659,284.817 294,283.5C 290.947,276.775 287.447,270.275 283.5,264C 274.619,259.348 270.619,262.181 271.5,272.5C 273.039,282.791 273.539,293.125 273,303.5C 270.401,309.089 267.401,314.423 264,319.5C 262.7,326.771 262.2,334.104 262.5,341.5C 262.098,333.745 261.098,326.078 259.5,318.5C 264.374,314.46 267.874,309.46 270,303.5C 269.577,289.493 269.743,275.493 270.5,261.5C 271.287,260.758 271.953,259.925 272.5,259C 278.579,257.59 283.412,259.423 287,264.5C 289.768,270.384 293.268,275.717 297.5,280.5C 298.823,270.449 300.323,260.449 302,250.5C 302.945,245.46 305.112,241.127 308.5,237.5C 312.112,236.924 315.112,237.924 317.5,240.5C 318.885,241.574 320.051,242.907 321,244.5C 323.979,253.232 325.479,262.232 325.5,271.5C 325.334,275.846 325.501,280.179 326,284.5C 327.159,285.566 327.992,285.233 328.5,283.5C 330.845,278.294 333.011,272.961 335,267.5C 335.468,256.56 337.301,245.893 340.5,235.5C 341.167,235.5 341.5,235.167 341.5,234.5C 345.05,233.122 348.717,232.122 352.5,231.5 Z"/></g>
<g><path style="opacity:1" fill="#72584a" d="M 65.5,267.5 C 65.3342,272.179 65.5008,276.845 66,281.5C 67.1855,279.441 68.3521,279.274 69.5,281C 66.9571,285.582 65.1237,290.415 64,295.5C 62.2835,296.552 61.2835,295.886 61,293.5C 60.8333,289.833 60.6667,286.167 60.5,282.5C 60.5112,278.435 61.1778,274.768 62.5,271.5C 62.3367,273.857 62.5034,276.19 63,278.5C 64.0141,274.759 64.8474,271.093 65.5,267.5 Z"/></g>
<g><path style="opacity:1" fill="#9a7f6d" d="M 325.5,271.5 C 325.869,275.768 326.869,279.768 328.5,283.5C 327.992,285.233 327.159,285.566 326,284.5C 325.501,280.179 325.334,275.846 325.5,271.5 Z"/></g>
<g><path style="opacity:1" fill="#795e4b" d="M 99.5,254.5 C 100.209,255.404 101.209,255.737 102.5,255.5C 103.397,260.14 103.564,264.806 103,269.5C 100.781,275.541 98.9476,281.708 97.5,288C 97.8499,289.257 98.5165,289.591 99.5,289C 100.743,287.846 101.743,286.512 102.5,285C 107.254,282.859 111.921,280.525 116.5,278C 125.873,274.774 129.706,277.941 128,287.5C 124.65,296.77 120.483,305.603 115.5,314C 115.667,314.833 115.833,315.667 116,316.5C 120.088,321.432 124.588,325.765 129.5,329.5C 128.761,329.369 128.094,329.536 127.5,330C 128.191,331.067 128.691,332.234 129,333.5C 129.671,334.252 130.504,334.586 131.5,334.5C 131.5,334.833 131.5,335.167 131.5,335.5C 131.5,336.833 131.5,338.167 131.5,339.5C 131.167,339.5 130.833,339.5 130.5,339.5C 129.882,336.602 128.715,333.935 127,331.5C 121.824,325.792 116.657,320.125 111.5,314.5C 115.152,306.528 119.319,298.861 124,291.5C 124.793,287.577 124.626,283.744 123.5,280C 122.167,279.333 120.833,279.333 119.5,280C 114.5,282.5 109.5,285 104.5,287.5C 101.147,290.687 97.6472,293.687 94,296.5C 92.7022,299.854 90.5356,302.188 87.5,303.5C 90.9735,296.023 94.1402,288.356 97,280.5C 99.8673,273.093 101.034,265.426 100.5,257.5C 97.1501,257.335 93.8168,257.502 90.5,258C 82.9879,263.846 76.4879,270.679 71,278.5C 70.3333,277.5 70.3333,276.5 71,275.5C 75.3253,267.759 81.1586,261.426 88.5,256.5C 91.8462,254.676 95.5128,254.01 99.5,254.5 Z"/></g>
<g><path style="opacity:1" fill="#c5ab98" d="M 370.5,255.5 C 374.525,266.334 376.192,277.667 375.5,289.5C 375.34,291.153 374.674,292.486 373.5,293.5C 373.666,285.493 373.5,277.493 373,269.5C 371.026,265.049 370.193,260.382 370.5,255.5 Z"/></g>
<g><path style="opacity:1" fill="#765c45" d="M 358.5,262.5 C 359.787,263.871 360.453,265.705 360.5,268C 359.363,278.766 355.363,288.266 348.5,296.5C 347.892,293.013 349.059,290.013 352,287.5C 355.496,279.526 357.662,271.193 358.5,262.5 Z"/></g>
<g><path style="opacity:1" fill="#7d554a" d="M 184.5,302.5 C 184.369,301.624 184.702,300.957 185.5,300.5C 191.302,311.392 200.302,315.226 212.5,312C 221.074,309.363 225.074,303.529 224.5,294.5C 216.502,292.501 208.502,290.501 200.5,288.5C 194.852,290.004 189.519,292.17 184.5,295C 180.848,295.499 177.182,295.665 173.5,295.5C 167.658,292.906 162.991,288.906 159.5,283.5C 160,283.167 160.5,282.833 161,282.5C 163.071,283.775 164.571,285.609 165.5,288C 167.228,289.726 169.228,291.059 171.5,292C 175.833,292.667 180.167,292.667 184.5,292C 189.77,289.526 195.104,287.36 200.5,285.5C 207.065,288.183 213.898,289.849 221,290.5C 229.286,291.308 235.619,288.308 240,281.5C 240.495,279.527 240.662,277.527 240.5,275.5C 241.833,275.5 243.167,275.5 244.5,275.5C 244.371,278.766 243.371,281.766 241.5,284.5C 237.705,288.45 233.538,291.783 229,294.5C 227.264,308.565 219.264,315.565 205,315.5C 195.093,315.807 188.26,311.473 184.5,302.5 Z"/></g>
<g><path style="opacity:1" fill="#8b7059" d="M 35.5,284.5 C 36.9311,284.881 37.7645,285.881 38,287.5C 39.8956,294.113 40.3956,300.78 39.5,307.5C 38.5224,307.023 37.6891,306.357 37,305.5C 36.1082,298.524 35.6082,291.524 35.5,284.5 Z"/></g>
<g><path style="opacity:1" fill="#da959e" d="M 184.5,302.5 C 183.539,300.735 183.205,298.735 183.5,296.5C 179.958,296.813 176.625,296.479 173.5,295.5C 177.182,295.665 180.848,295.499 184.5,295C 189.519,292.17 194.852,290.004 200.5,288.5C 208.502,290.501 216.502,292.501 224.5,294.5C 225.074,303.529 221.074,309.363 212.5,312C 200.302,315.226 191.302,311.392 185.5,300.5C 184.702,300.957 184.369,301.624 184.5,302.5 Z"/></g>
<g><path style="opacity:1" fill="#6890d6" d="M 359.5,315.5 C 357.976,319.202 355.81,322.536 353,325.5C 347.663,332.004 341.829,338.004 335.5,343.5C 338.374,337.022 342.041,331.022 346.5,325.5C 350.254,321.452 354.587,318.118 359.5,315.5 Z"/></g>
<g><path style="opacity:1" fill="#493d48" d="M 259.5,318.5 C 261.098,326.078 262.098,333.745 262.5,341.5C 265.154,356.087 267.154,370.754 268.5,385.5C 267.609,386.11 266.609,386.443 265.5,386.5C 263.913,366.799 261.746,347.133 259,327.5C 254.128,325.696 249.294,325.362 244.5,326.5C 241.297,326.682 239.464,328.348 239,331.5C 238.333,338.167 238.333,344.833 239,351.5C 239.414,351.957 239.914,352.291 240.5,352.5C 240.833,355 241.167,357.5 241.5,360C 241.475,362.929 240.809,365.429 239.5,367.5C 239.451,364.626 239.784,361.792 240.5,359C 239.375,356.378 238.041,353.878 236.5,351.5C 235.445,343.108 235.778,334.775 237.5,326.5C 244.54,323.262 251.873,320.596 259.5,318.5 Z"/></g>
<g><path style="opacity:1" fill="#cc9d88" d="M 236.5,351.5 C 238.041,353.878 239.375,356.378 240.5,359C 239.784,361.792 239.451,364.626 239.5,367.5C 237.451,373.211 235.951,379.211 235,385.5C 234.477,387.223 233.477,388.556 232,389.5C 225.538,385.516 218.704,382.516 211.5,380.5C 204.531,380.484 198.865,383.151 194.5,388.5C 191.917,379.023 190.917,369.356 191.5,359.5C 194.089,356.749 196.922,354.083 200,351.5C 200.663,346.463 200.496,341.463 199.5,336.5C 208.294,335.385 216.961,333.551 225.5,331C 228.817,330.502 232.15,330.335 235.5,330.5C 235.168,335.161 234.835,339.828 234.5,344.5C 234.529,347.269 235.195,349.603 236.5,351.5 Z"/></g>
<g><path style="opacity:1" fill="#4e4c5d" d="M 364.5,308.5 C 363.567,311.37 361.9,313.704 359.5,315.5C 354.587,318.118 350.254,321.452 346.5,325.5C 344.203,326.835 342.203,328.668 340.5,331C 332.939,333.566 326.106,337.399 320,342.5C 319.539,347.184 319.705,351.851 320.5,356.5C 319.71,357.401 318.71,358.068 317.5,358.5C 317.106,353.969 316.439,349.469 315.5,345C 315.493,343.188 316.16,341.688 317.5,340.5C 333.673,330.674 349.34,320.007 364.5,308.5 Z"/></g>
<g><path style="opacity:1" fill="#3d3d57" d="M 49.5,331.5 C 55.577,334.808 61.9103,337.641 68.5,340C 73.2987,340.754 77.9654,341.921 82.5,343.5C 83.4959,349.463 83.8293,355.463 83.5,361.5C 81.6115,360.396 79.9448,359.063 78.5,357.5C 77.3633,353.583 76.53,349.583 76,345.5C 75.5,345 75,344.5 74.5,344C 68.5983,341.952 62.5983,340.119 56.5,338.5C 53.8333,336.5 51.5,334.167 49.5,331.5 Z"/></g>
<g><path style="opacity:0.99" fill="#4a6aa4" d="M 56.5,338.5 C 62.5983,340.119 68.5983,341.952 74.5,344C 75,344.5 75.5,345 76,345.5C 76.53,349.583 77.3633,353.583 78.5,357.5C 73.4462,354.626 68.7795,351.126 64.5,347C 61.6286,344.297 58.9619,341.464 56.5,338.5 Z"/></g>
<g><path style="opacity:1" fill="#755144" d="M 237.5,326.5 C 235.778,334.775 235.445,343.108 236.5,351.5C 235.195,349.603 234.529,347.269 234.5,344.5C 234.835,339.828 235.168,335.161 235.5,330.5C 232.15,330.335 228.817,330.502 225.5,331C 216.961,333.551 208.294,335.385 199.5,336.5C 184.361,334.838 169.027,333.838 153.5,333.5C 168.837,333.667 184.17,333.5 199.5,333C 212.085,330.185 224.752,328.018 237.5,326.5 Z"/></g>
<g><path style="opacity:1" fill="#4b6fa8" d="M 346.5,325.5 C 342.041,331.022 338.374,337.022 335.5,343.5C 330.821,348.178 325.821,352.511 320.5,356.5C 319.705,351.851 319.539,347.184 320,342.5C 326.106,337.399 332.939,333.566 340.5,331C 342.203,328.668 344.203,326.835 346.5,325.5 Z"/></g>
<g><path style="opacity:1" fill="#b19c8d" d="M 130.5,339.5 C 130.833,339.5 131.167,339.5 131.5,339.5C 133.527,343.417 134.861,347.583 135.5,352C 134.75,355.83 134.083,359.663 133.5,363.5C 132.833,364.833 132.167,366.167 131.5,367.5C 133.077,358.078 132.744,348.745 130.5,339.5 Z"/></g>
<g><path style="opacity:1" fill="#4a6eab" d="M 138.5,333.5 C 142.876,333.909 147.21,334.575 151.5,335.5C 152.508,340.2 152.508,344.867 151.5,349.5C 150.975,350.192 150.308,350.692 149.5,351C 146.5,351.667 143.5,351.667 140.5,351C 139.856,348.26 138.689,345.76 137,343.5C 136.744,340.443 136.244,337.443 135.5,334.5C 136.325,333.614 137.325,333.281 138.5,333.5 Z"/></g>
<g><path style="opacity:1" fill="#383045" d="M 129.5,329.5 C 137.556,330.555 145.556,331.889 153.5,333.5C 169.027,333.838 184.361,334.838 199.5,336.5C 200.496,341.463 200.663,346.463 200,351.5C 196.922,354.083 194.089,356.749 191.5,359.5C 189.547,365.074 188.88,371.074 189.5,377.5C 188.508,370.018 188.175,362.352 188.5,354.5C 191.862,354.93 194.695,353.93 197,351.5C 197.81,347.642 197.643,343.976 196.5,340.5C 196.67,339.178 196.337,338.011 195.5,337C 188.833,336.333 182.167,336.333 175.5,337C 173.497,337.335 171.83,338.168 170.5,339.5C 169.5,339.5 168.5,339.5 167.5,339.5C 167.119,338.069 166.119,337.236 164.5,337C 161.518,336.502 158.518,336.335 155.5,336.5C 155.719,337.675 155.386,338.675 154.5,339.5C 153.943,337.668 152.943,336.335 151.5,335.5C 147.21,334.575 142.876,333.909 138.5,333.5C 137.551,332.848 136.385,332.514 135,332.5C 133.319,332.608 132.152,333.275 131.5,334.5C 130.504,334.586 129.671,334.252 129,333.5C 128.691,332.234 128.191,331.067 127.5,330C 128.094,329.536 128.761,329.369 129.5,329.5 Z"/></g>
<g><path style="opacity:1" fill="#4d6390" d="M 138.5,333.5 C 137.325,333.281 136.325,333.614 135.5,334.5C 136.244,337.443 136.744,340.443 137,343.5C 138.689,345.76 139.856,348.26 140.5,351C 143.5,351.667 146.5,351.667 149.5,351C 150.308,350.692 150.975,350.192 151.5,349.5C 152.508,344.867 152.508,340.2 151.5,335.5C 152.943,336.335 153.943,337.668 154.5,339.5C 155.386,338.675 155.719,337.675 155.5,336.5C 158.518,336.335 161.518,336.502 164.5,337C 166.119,337.236 167.119,338.069 167.5,339.5C 164.049,342.383 161.049,345.716 158.5,349.5C 157.571,348.311 157.238,346.978 157.5,345.5C 156.5,345.5 155.5,345.5 154.5,345.5C 154.5,347.5 154.5,349.5 154.5,351.5C 150.923,352.579 147.256,353.246 143.5,353.5C 141.215,353.324 139.215,352.657 137.5,351.5C 136.064,345.846 134.064,340.512 131.5,335.5C 131.5,335.167 131.5,334.833 131.5,334.5C 132.152,333.275 133.319,332.608 135,332.5C 136.385,332.514 137.551,332.848 138.5,333.5 Z"/></g>
<g><path style="opacity:1" fill="#485180" d="M 196.5,340.5 C 196.5,343.833 196.5,347.167 196.5,350.5C 194.533,350.261 192.699,350.594 191,351.5C 190.902,349.381 190.069,347.714 188.5,346.5C 188.167,352 187.833,357.5 187.5,363C 187.763,374.54 188.43,386.04 189.5,397.5C 186.167,397.5 182.833,397.5 179.5,397.5C 176.721,394.544 174.054,391.377 171.5,388C 170.207,387.51 168.873,387.343 167.5,387.5C 166.595,384.553 165.095,381.887 163,379.5C 159.359,376.195 155.692,372.862 152,369.5C 149.925,365.421 147.092,361.921 143.5,359C 141.402,358.322 139.402,358.489 137.5,359.5C 137.5,358.833 137.5,358.167 137.5,357.5C 144.591,357.072 151.591,356.072 158.5,354.5C 162.503,349.421 166.503,344.421 170.5,339.5C 171.83,338.168 173.497,337.335 175.5,337C 182.167,336.333 188.833,336.333 195.5,337C 196.337,338.011 196.67,339.178 196.5,340.5 Z"/></g>
<g><path style="opacity:1" fill="#2e3558" d="M 167.5,339.5 C 168.5,339.5 169.5,339.5 170.5,339.5C 166.503,344.421 162.503,349.421 158.5,354.5C 151.591,356.072 144.591,357.072 137.5,357.5C 137.5,355.5 137.5,353.5 137.5,351.5C 139.215,352.657 141.215,353.324 143.5,353.5C 147.256,353.246 150.923,352.579 154.5,351.5C 154.5,349.5 154.5,347.5 154.5,345.5C 155.5,345.5 156.5,345.5 157.5,345.5C 157.238,346.978 157.571,348.311 158.5,349.5C 161.049,345.716 164.049,342.383 167.5,339.5 Z"/></g>
<g><path style="opacity:1" fill="#3f3847" d="M 131.5,335.5 C 134.064,340.512 136.064,345.846 137.5,351.5C 137.5,353.5 137.5,355.5 137.5,357.5C 137.5,358.167 137.5,358.833 137.5,359.5C 136.778,359.918 136.278,360.584 136,361.5C 135.172,366.202 135.338,370.869 136.5,375.5C 140.218,380.869 143.884,386.203 147.5,391.5C 146.167,391.167 144.833,390.833 143.5,390.5C 141.251,386.246 138.585,382.246 135.5,378.5C 133.557,377.709 132.557,376.209 132.5,374C 133.286,370.542 133.62,367.042 133.5,363.5C 134.083,359.663 134.75,355.83 135.5,352C 134.861,347.583 133.527,343.417 131.5,339.5C 131.5,338.167 131.5,336.833 131.5,335.5 Z"/></g>
<g><path style="opacity:1" fill="#3f3c5e" d="M 196.5,340.5 C 197.643,343.976 197.81,347.642 197,351.5C 194.695,353.93 191.862,354.93 188.5,354.5C 188.175,362.352 188.508,370.018 189.5,377.5C 190.554,382.818 191.887,388.151 193.5,393.5C 193.167,394.833 192.833,396.167 192.5,397.5C 191.5,397.5 190.5,397.5 189.5,397.5C 188.43,386.04 187.763,374.54 187.5,363C 187.833,357.5 188.167,352 188.5,346.5C 190.069,347.714 190.902,349.381 191,351.5C 192.699,350.594 194.533,350.261 196.5,350.5C 196.5,347.167 196.5,343.833 196.5,340.5 Z"/></g>
<g><path style="opacity:1" fill="#495280" d="M 265.5,386.5 C 256.78,389.85 247.78,392.183 238.5,393.5C 238.999,388.508 239.499,383.508 240,378.5C 241.353,377.315 242.52,375.981 243.5,374.5C 244.497,366.862 244.831,359.196 244.5,351.5C 245.978,351.762 247.311,351.429 248.5,350.5C 249.321,348.217 249.988,345.884 250.5,343.5C 249.27,340.476 249.27,337.476 250.5,334.5C 249.232,332.953 247.565,331.953 245.5,331.5C 244.548,329.955 244.215,328.288 244.5,326.5C 249.294,325.362 254.128,325.696 259,327.5C 261.746,347.133 263.913,366.799 265.5,386.5 Z"/></g>
<g><path style="opacity:1" fill="#5f6ba8" d="M 179.5,397.5 C 179.167,397.5 178.833,397.5 178.5,397.5C 168.188,396.038 157.855,394.038 147.5,391.5C 143.884,386.203 140.218,380.869 136.5,375.5C 135.338,370.869 135.172,366.202 136,361.5C 136.278,360.584 136.778,359.918 137.5,359.5C 139.402,358.489 141.402,358.322 143.5,359C 147.092,361.921 149.925,365.421 152,369.5C 155.692,372.862 159.359,376.195 163,379.5C 165.095,381.887 166.595,384.553 167.5,387.5C 168.873,387.343 170.207,387.51 171.5,388C 174.054,391.377 176.721,394.544 179.5,397.5 Z"/></g>
<g><path style="opacity:1" fill="#6a564e" d="M 133.5,363.5 C 133.62,367.042 133.286,370.542 132.5,374C 132.557,376.209 133.557,377.709 135.5,378.5C 133.612,380.988 132.945,383.988 133.5,387.5C 132.005,387.011 130.671,386.345 129.5,385.5C 130.276,379.527 130.943,373.527 131.5,367.5C 132.167,366.167 132.833,364.833 133.5,363.5 Z"/></g>
<g><path style="opacity:1" fill="#e4dfdf" d="M 135.5,378.5 C 138.585,382.246 141.251,386.246 143.5,390.5C 140.183,389.503 136.85,388.503 133.5,387.5C 132.945,383.988 133.612,380.988 135.5,378.5 Z"/></g>
<g><path style="opacity:1" fill="#474565" d="M 244.5,326.5 C 244.215,328.288 244.548,329.955 245.5,331.5C 247.565,331.953 249.232,332.953 250.5,334.5C 249.27,337.476 249.27,340.476 250.5,343.5C 249.988,345.884 249.321,348.217 248.5,350.5C 247.311,351.429 245.978,351.762 244.5,351.5C 244.831,359.196 244.497,366.862 243.5,374.5C 242.52,375.981 241.353,377.315 240,378.5C 239.499,383.508 238.999,388.508 238.5,393.5C 237.791,394.404 236.791,394.737 235.5,394.5C 237.893,385.696 239.226,376.696 239.5,367.5C 240.809,365.429 241.475,362.929 241.5,360C 241.167,357.5 240.833,355 240.5,352.5C 239.914,352.291 239.414,351.957 239,351.5C 238.333,344.833 238.333,338.167 239,331.5C 239.464,328.348 241.297,326.682 244.5,326.5 Z"/></g>
<g><path style="opacity:1" fill="#59454c" d="M 191.5,359.5 C 190.917,369.356 191.917,379.023 194.5,388.5C 198.865,383.151 204.531,380.484 211.5,380.5C 218.704,382.516 225.538,385.516 232,389.5C 233.477,388.556 234.477,387.223 235,385.5C 235.951,379.211 237.451,373.211 239.5,367.5C 239.226,376.696 237.893,385.696 235.5,394.5C 234.167,394.833 232.833,395.167 231.5,395.5C 231.649,394.448 231.483,393.448 231,392.5C 222.656,385.043 213.156,382.543 202.5,385C 198.973,387.362 195.973,390.196 193.5,393.5C 191.887,388.151 190.554,382.818 189.5,377.5C 188.88,371.074 189.547,365.074 191.5,359.5 Z"/></g>
<g><path style="opacity:0.986" fill="#c7c3d6" d="M 231.5,395.5 C 226.99,395.884 222.657,396.551 218.5,397.5C 209.833,397.5 201.167,397.5 192.5,397.5C 192.833,396.167 193.167,394.833 193.5,393.5C 195.973,390.196 198.973,387.362 202.5,385C 213.156,382.543 222.656,385.043 231,392.5C 231.483,393.448 231.649,394.448 231.5,395.5 Z"/></g>
</svg>
